<svg width="47" height="39" viewBox="0 0 47 39" fill="none" xmlns="http://www.w3.org/2000/svg">
<path d="M31.9737 24.375H27.1316C25.7947 24.375 24.7105 25.4665 24.7105 26.8125V36.5625C24.7105 37.9085 25.7947 39 27.1316 39H31.9737C33.3106 39 34.3947 37.9085 34.3947 36.5625V26.8125C34.3947 25.4665 33.3106 24.375 31.9737 24.375ZM30.7632 35.3438H28.3421V28.0312H30.7632V35.3438ZM44.0789 14.625H39.2368C37.9 14.625 36.8158 15.7165 36.8158 17.0625V36.5625C36.8158 37.9085 37.9 39 39.2368 39H44.0789C45.4158 39 46.5 37.9085 46.5 36.5625V17.0625C46.5 15.7165 45.4158 14.625 44.0789 14.625ZM42.8684 35.3438H40.4474V18.2812H42.8684V35.3438ZM19.8684 14.625H15.0263C13.6894 14.625 12.6053 15.7165 12.6053 17.0625V36.5625C12.6053 37.9085 13.6894 39 15.0263 39H19.8684C21.2053 39 22.2895 37.9085 22.2895 36.5625V17.0625C22.2895 15.7165 21.2053 14.625 19.8684 14.625ZM18.6579 35.3438H16.2368V18.2812H18.6579V35.3438ZM7.76316 26.8125H2.92105C1.58418 26.8125 0.5 27.904 0.5 29.25V36.5625C0.5 37.9085 1.58418 39 2.92105 39H7.76316C9.10003 39 10.1842 37.9085 10.1842 36.5625V29.25C10.1842 27.904 9.10003 26.8125 7.76316 26.8125ZM6.55263 35.3438H4.13158V30.4688H6.55263V35.3438ZM5.34211 19.5C7.3478 19.5 8.97368 17.8631 8.97368 15.8438C8.97368 15.5185 8.9177 15.2085 8.83901 14.9084L16.5183 7.17691C16.8164 7.25613 17.1243 7.3125 17.4474 7.3125C17.9127 7.3125 18.353 7.21652 18.7623 7.0558L25.9755 12.8654C25.949 13.0429 25.9218 13.2212 25.9218 13.4062C25.9218 15.4256 27.5477 17.0625 29.5534 17.0625C31.5591 17.0625 33.185 15.4256 33.185 13.4062C33.185 13.2212 33.157 13.0437 33.1312 12.8662L40.3445 7.05656C40.7523 7.21652 41.1926 7.3125 41.6579 7.3125C43.6636 7.3125 45.2895 5.67557 45.2895 3.65625C45.2895 1.63693 43.6636 0 41.6579 0C39.6522 0 38.0263 1.63693 38.0263 3.65625C38.0263 3.84135 38.0543 4.01883 38.08 4.19631L30.8668 10.0059C30.4583 9.84521 30.0172 9.74924 29.5519 9.74924C29.0866 9.74924 28.6462 9.84521 28.2369 10.0059L21.0252 4.19707C21.0517 4.01959 21.0789 3.84135 21.0789 3.65625C21.0789 1.63693 19.4531 0 17.4474 0C15.4417 0 13.8158 1.63693 13.8158 3.65625C13.8158 3.9815 13.8718 4.29152 13.9505 4.59164L6.27118 12.3231C5.97309 12.2439 5.66516 12.1875 5.34211 12.1875C3.33641 12.1875 1.71053 13.8244 1.71053 15.8438C1.71053 17.8631 3.33641 19.5 5.34211 19.5Z" fill="#C5C2C4"/>
</svg>
