<svg width="45" height="45" viewBox="0 0 45 45" fill="none" xmlns="http://www.w3.org/2000/svg">
<path d="M43.4698 14.4598C43.3362 14.349 42.2517 13.4754 40.7812 12.2924V8.4375C40.7812 6.10752 38.8925 4.21875 36.5625 4.21875H30.7503C28.7613 2.53564 25.8196 0 22.5 0C19.1909 0 16.2686 2.51631 14.2515 4.21875H8.4375C6.10752 4.21875 4.21875 6.10752 4.21875 8.4375V12.2915C2.74131 13.4798 1.65674 14.3534 1.53984 14.4501C1.05851 14.8458 0.670796 15.3431 0.404553 15.9065C0.13831 16.4698 0.000149645 17.0851 0 17.7082L0 40.7812C0 43.1112 1.88877 45 4.21875 45H40.7812C43.1112 45 45 43.1112 45 40.7812V17.7108C45 16.4531 44.4393 15.2604 43.4698 14.4598ZM8.4375 8.4375H36.5625V22.2064C33.3756 24.7834 29.6464 27.8024 28.9521 28.3544C27.356 29.6297 24.5742 32.3438 22.5 32.3438C20.4179 32.3438 17.5904 29.5866 16.0479 28.3544C15.3536 27.8024 11.6244 24.7825 8.4375 22.2047V8.4375ZM40.7812 40.2539C40.7812 40.5448 40.5448 40.7812 40.2539 40.7812H4.74609C4.45518 40.7812 4.21875 40.5448 4.21875 40.2539V24.2191C7.64297 26.9859 12.6519 31.0438 13.4174 31.6529C15.3554 33.2016 18.6812 36.5625 22.5 36.5625C26.2978 36.5625 29.5875 33.2473 31.5826 31.6529C32.3736 31.0245 37.3693 26.978 40.7812 24.2209V40.2539ZM15.4688 16.875H29.5312C30.3082 16.875 30.9375 16.2457 30.9375 15.4688V14.0625C30.9375 13.2855 30.3082 12.6562 29.5312 12.6562H15.4688C14.6918 12.6562 14.0625 13.2855 14.0625 14.0625V15.4688C14.0625 16.2457 14.6918 16.875 15.4688 16.875ZM30.9375 22.5V21.0938C30.9375 20.3168 30.3082 19.6875 29.5312 19.6875H15.4688C14.6918 19.6875 14.0625 20.3168 14.0625 21.0938V22.5C14.0625 23.277 14.6918 23.9062 15.4688 23.9062H29.5312C30.3082 23.9062 30.9375 23.277 30.9375 22.5Z" fill="#C5C2C4"/>
</svg>
