<svg width="34" height="45" viewBox="0 0 34 45" fill="none" xmlns="http://www.w3.org/2000/svg">
<path d="M32.7552 8.6081L25.3281 1.23565C24.5311 0.444484 23.4501 5.85067e-06 22.3229 0H4.25C1.90276 0 0 1.88877 0 4.21875V40.7812C0 43.1112 1.90276 45 4.25 45H29.75C32.0972 45 34 43.1112 34 40.7812V11.5912C34 10.4723 33.5522 9.39926 32.7552 8.6081ZM29.4063 11.25H22.6667V4.55994L29.4063 11.25ZM4.25 40.7812V4.21875H18.4167V13.3594C18.4167 14.5244 19.368 15.4688 20.5417 15.4688H29.75V40.7812H4.25ZM27.3727 23.8482L14.7725 36.2556C14.3559 36.6658 13.6831 36.6631 13.2698 36.2496L6.62115 29.5963C6.20792 29.1828 6.21058 28.515 6.62717 28.1047L8.63874 26.124C9.05533 25.7138 9.72807 25.7164 10.1413 26.1301L14.0463 30.0378L23.8808 20.3539C24.2974 19.9437 24.9702 19.9463 25.3835 20.3599L27.3789 22.3566C27.7921 22.7702 27.7893 23.4379 27.3727 23.8482Z" fill="#C5C2C4"/>
</svg>
