<svg width="122" height="19" viewBox="0 0 122 19" fill="none" xmlns="http://www.w3.org/2000/svg">
<g clip-path="url(#esaf-five-stars-clip0)">
<path d="M35.4924 15.8913L29.8104 18.9776C29.6754 19.0517 29.5153 18.9328 29.542 18.7761L30.6271 12.2384C30.6371 12.1764 30.6171 12.1127 30.5737 12.0696L25.9768 7.44017C25.8668 7.32994 25.9268 7.13705 26.0801 7.11466L32.4322 6.16053C32.4922 6.15191 32.5439 6.1123 32.5722 6.05547L35.4124 0.106774C35.4808 -0.0344519 35.6758 -0.0344519 35.7441 0.106774L38.586 6.05547C38.6126 6.1123 38.6643 6.15019 38.726 6.16053L45.0781 7.11466C45.2298 7.13705 45.2898 7.32994 45.1814 7.44017L40.5844 12.0696C40.5411 12.1127 40.5211 12.1764 40.5311 12.2384L41.6162 18.7761C41.6428 18.9328 41.4828 19.0517 41.3478 18.9776L35.6658 15.8913C35.6108 15.862 35.5474 15.862 35.4924 15.8913Z" fill="url(#esaf-five-stars-paint0_linear)"/>
<path d="M41.3478 18.9777L35.6657 15.8914C35.6107 15.8621 35.5474 15.8621 35.4924 15.8914L29.8103 18.9777C29.6753 19.0517 29.517 18.9329 29.542 18.7779L29.5803 18.5454L35.5774 15.2869L41.5745 18.5454L41.6128 18.7779C41.6411 18.9329 41.4828 19.0517 41.3478 18.9777Z" fill="#F9A111"/>
<path d="M45.1815 7.45737L40.5845 12.0851C40.5395 12.1299 40.5211 12.1919 40.5311 12.2556L40.4678 11.8784C40.4478 11.7544 40.4861 11.627 40.5745 11.5391L44.9681 7.11292L45.0798 7.13014C45.2298 7.15425 45.2898 7.34714 45.1815 7.45737Z" fill="url(#esaf-five-stars-paint1_linear)"/>
<path d="M25.9768 7.44016L30.5754 12.0679C30.6204 12.1127 30.6388 12.1747 30.6288 12.2384L30.6921 11.8612C30.7121 11.7372 30.6738 11.6098 30.5854 11.5219L26.1918 7.0957L26.0801 7.11293C25.9284 7.13704 25.8668 7.32993 25.9768 7.44016Z" fill="url(#esaf-five-stars-paint2_linear)"/>
<path d="M10.073 15.8924L4.39096 18.9787C4.25596 19.0528 4.09594 18.9339 4.12261 18.7772L5.20769 12.2395C5.21769 12.1775 5.19769 12.1138 5.15435 12.0707L0.557366 7.43955C0.447358 7.32932 0.507362 7.13643 0.660706 7.11404L7.01281 6.15991C7.07282 6.15129 7.12449 6.11168 7.15282 6.05485L9.99302 0.107872C10.0614 -0.0333533 10.2564 -0.0333533 10.3247 0.107872L13.1666 6.05657C13.1932 6.1134 13.2449 6.15129 13.3066 6.16163L19.6587 7.11576C19.8104 7.13815 19.8704 7.33104 19.762 7.44127L15.1634 12.0707C15.12 12.1138 15.1 12.1775 15.11 12.2395L16.1951 18.7772C16.2218 18.9339 16.0618 19.0528 15.9268 18.9787L10.2447 15.8924C10.1914 15.8631 10.1264 15.8631 10.073 15.8924Z" fill="url(#esaf-five-stars-paint3_linear)"/>
<path d="M15.9261 18.9775L10.2457 15.8913C10.1907 15.862 10.1273 15.862 10.0723 15.8913L4.39027 18.9775C4.25526 19.0516 4.09691 18.9328 4.12191 18.7778L4.16025 18.5453L10.1573 15.2867L16.1544 18.5453L16.1927 18.7778C16.2211 18.9328 16.0611 19.0516 15.9261 18.9775Z" fill="#F9A111"/>
<path d="M19.7596 7.45737L15.1626 12.0851C15.1176 12.1299 15.0993 12.1919 15.1093 12.2556L15.0459 11.8784C15.0259 11.7544 15.0643 11.627 15.1526 11.5391L19.5462 7.11292L19.6579 7.13014C19.8079 7.15425 19.8696 7.34714 19.7596 7.45737Z" fill="url(#esaf-five-stars-paint4_linear)"/>
<path d="M0.554986 7.44016L5.15364 12.0679C5.19864 12.1127 5.21697 12.1747 5.20697 12.2384L5.27031 11.8612C5.29031 11.7372 5.25198 11.6098 5.16364 11.5219L0.770001 7.0957L0.658326 7.11293C0.506649 7.13704 0.446645 7.32993 0.554986 7.44016Z" fill="url(#esaf-five-stars-paint5_linear)"/>
<path d="M86.3342 15.8913L80.6521 18.9776C80.5171 19.0517 80.3571 18.9328 80.3838 18.7761L81.4689 12.2384C81.4789 12.1764 81.4589 12.1127 81.4155 12.0696L76.8185 7.44017C76.7085 7.32994 76.7685 7.13705 76.9202 7.11466L83.2723 6.16053C83.3323 6.15191 83.384 6.1123 83.4123 6.05547L86.2559 0.106774C86.3242 -0.0344519 86.5192 -0.0344519 86.5876 0.106774L89.4294 6.05547C89.4561 6.1123 89.5078 6.15019 89.5694 6.16053L95.9215 7.11466C96.0732 7.13705 96.1332 7.32994 96.0232 7.44017L91.4262 12.0696C91.3829 12.1127 91.3629 12.1764 91.3729 12.2384L92.458 18.7761C92.4846 18.9328 92.3246 19.0517 92.1896 18.9776L86.5076 15.8913C86.4525 15.862 86.3892 15.862 86.3342 15.8913Z" fill="url(#esaf-five-stars-paint6_linear)"/>
<path d="M92.1896 18.9777L86.5075 15.8914C86.4525 15.8621 86.3892 15.8621 86.3342 15.8914L80.6521 18.9777C80.5171 19.0517 80.3588 18.9329 80.3838 18.7779L80.4221 18.5454L86.4192 15.2869L92.4163 18.5454L92.4546 18.7779C92.4829 18.9329 92.3246 19.0517 92.1896 18.9777Z" fill="#F9A111"/>
<path d="M96.0232 7.45737L91.4262 12.0851C91.3812 12.1299 91.3629 12.1919 91.3729 12.2556L91.3096 11.8784C91.2896 11.7544 91.3279 11.627 91.4162 11.5391L95.8098 7.11292L95.9215 7.13014C96.0715 7.15425 96.1332 7.34714 96.0232 7.45737Z" fill="url(#paint7_linear)"/>
<path d="M76.8186 7.44016L81.4172 12.0679C81.4622 12.1127 81.4805 12.1747 81.4705 12.2384L81.5339 11.8612C81.5539 11.7372 81.5155 11.6098 81.4272 11.5219L77.0336 7.0957L76.9219 7.11293C76.7702 7.13704 76.7085 7.32993 76.8186 7.44016Z" fill="url(#paint8_linear)"/>
<path d="M111.756 15.8913L106.074 18.9776C105.939 19.0517 105.779 18.9328 105.806 18.7761L106.891 12.2384C106.901 12.1764 106.881 12.1127 106.838 12.0696L102.241 7.43844C102.131 7.32822 102.191 7.13533 102.344 7.11294L108.696 6.1588C108.756 6.15019 108.808 6.11058 108.836 6.05375L111.676 0.106774C111.745 -0.0344519 111.94 -0.0344519 112.008 0.106774L114.85 6.05547C114.877 6.1123 114.928 6.15019 114.99 6.16053L121.342 7.11294C121.494 7.13533 121.554 7.32822 121.444 7.43844L116.847 12.0679C116.803 12.1109 116.783 12.1747 116.793 12.2367L117.879 18.7744C117.905 18.9311 117.745 19.0499 117.61 18.9759L111.928 15.8896C111.875 15.862 111.81 15.862 111.756 15.8913Z" fill="url(#esaf-five-stars-paint9_linear)"/>
<path d="M117.61 18.9777L111.928 15.8914C111.873 15.8621 111.809 15.8621 111.754 15.8914L106.074 18.9777C105.939 19.0517 105.781 18.9329 105.806 18.7779L105.844 18.5454L111.841 15.2869L117.838 18.5454L117.876 18.7779C117.905 18.9329 117.745 19.0517 117.61 18.9777Z" fill="#F9A111"/>
<path d="M121.445 7.45737L116.848 12.0851C116.803 12.1299 116.785 12.1919 116.795 12.2556L116.731 11.8784C116.711 11.7544 116.75 11.627 116.838 11.5391L121.232 7.11292L121.343 7.13014C121.493 7.15425 121.553 7.34714 121.445 7.45737Z" fill="url(#esaf-five-stars-paint10_linear)"/>
<path d="M102.239 7.44016L106.837 12.0679C106.882 12.1127 106.901 12.1747 106.891 12.2384L106.954 11.8612C106.974 11.7372 106.936 11.6098 106.847 11.5219L102.454 7.0957L102.342 7.11293C102.192 7.13704 102.13 7.32993 102.239 7.44016Z" fill="url(#esaf-five-stars-paint11_linear)"/>
<path d="M60.9149 15.8913L55.2328 18.9776C55.0978 19.0517 54.9378 18.9328 54.9645 18.7761L56.0495 12.2384C56.0596 12.1764 56.0395 12.1127 55.9962 12.0696L51.3992 7.44017C51.2892 7.32994 51.3492 7.13705 51.5026 7.11466L57.8547 6.16053C57.9147 6.15191 57.9663 6.1123 57.9947 6.05547L60.8349 0.106774C60.9032 -0.0344519 61.0982 -0.0344519 61.1666 0.106774L64.0084 6.05547C64.0351 6.1123 64.0868 6.15019 64.1484 6.16053L70.5006 7.11466C70.6522 7.13705 70.7122 7.32994 70.6039 7.44017L66.0052 12.0696C65.9619 12.1127 65.9419 12.1764 65.9519 12.2384L67.037 18.7761C67.0636 18.9328 66.9036 19.0517 66.7686 18.9776L61.0866 15.8913C61.0332 15.862 60.9682 15.862 60.9149 15.8913Z" fill="url(#esaf-five-stars-paint12_linear)"/>
<path d="M66.7679 18.9777L61.0875 15.8914C61.0325 15.8621 60.9692 15.8621 60.9142 15.8914L55.2321 18.9777C55.0971 19.0517 54.9387 18.9329 54.9637 18.7779L55.0021 18.5454L60.9992 15.2869L66.9962 18.5454L67.0346 18.7779C67.0629 18.9329 66.9029 19.0517 66.7679 18.9777Z" fill="#F9A111"/>
<path d="M70.6032 7.45737L66.0045 12.0851C65.9595 12.1299 65.9411 12.1919 65.9511 12.2556L65.8878 11.8784C65.8678 11.7544 65.9061 11.627 65.9945 11.5391L70.3882 7.11292L70.4999 7.13014C70.6499 7.15425 70.7115 7.34714 70.6032 7.45737Z" fill="url(#esaf-five-stars-paint13_linear)"/>
<path d="M51.3968 7.44016L55.9955 12.0679C56.0405 12.1127 56.0588 12.1747 56.0488 12.2384L56.1122 11.8612C56.1322 11.7372 56.0938 11.6098 56.0055 11.5219L51.6119 7.0957L51.5002 7.11293C51.3502 7.13704 51.2885 7.32993 51.3968 7.44016Z" fill="url(#esaf-five-stars-paint14_linear)"/>
</g>
<defs>
<linearGradient id="esaf-five-stars-paint0_linear" x1="35.5672" y1="-0.148533" x2="35.5976" y2="17.9035" gradientUnits="userSpaceOnUse">
<stop stop-color="#FFD43B"/>
<stop offset="1" stop-color="#F9A825"/>
</linearGradient>
<linearGradient id="esaf-five-stars-paint1_linear" x1="40.4616" y1="9.68464" x2="45.237" y2="9.68464" gradientUnits="userSpaceOnUse">
<stop stop-color="#F9A114"/>
<stop offset="1" stop-color="#FCBF31"/>
</linearGradient>
<linearGradient id="esaf-five-stars-paint2_linear" x1="25.921" y1="9.66743" x2="30.6964" y2="9.66743" gradientUnits="userSpaceOnUse">
<stop stop-color="#FCBF31"/>
<stop offset="1" stop-color="#F9A114"/>
</linearGradient>
<linearGradient id="esaf-five-stars-paint3_linear" x1="10.1469" y1="-0.147434" x2="10.1773" y2="17.9046" gradientUnits="userSpaceOnUse">
<stop stop-color="#FFD43B"/>
<stop offset="1" stop-color="#F9A825"/>
</linearGradient>
<linearGradient id="esaf-five-stars-paint4_linear" x1="15.0405" y1="9.68464" x2="19.8159" y2="9.68464" gradientUnits="userSpaceOnUse">
<stop stop-color="#F9A114"/>
<stop offset="1" stop-color="#FCBF31"/>
</linearGradient>
<linearGradient id="esaf-five-stars-paint5_linear" x1="0.499982" y1="9.66743" x2="5.27533" y2="9.66743" gradientUnits="userSpaceOnUse">
<stop stop-color="#FCBF31"/>
<stop offset="1" stop-color="#F9A114"/>
</linearGradient>
<linearGradient id="esaf-five-stars-paint6_linear" x1="86.4092" y1="-0.148533" x2="86.4395" y2="17.9035" gradientUnits="userSpaceOnUse">
<stop stop-color="#FFD43B"/>
<stop offset="1" stop-color="#F9A825"/>
</linearGradient>
<linearGradient id="paint7_linear" x1="91.3035" y1="9.68464" x2="96.0789" y2="9.68464" gradientUnits="userSpaceOnUse">
<stop stop-color="#F9A114"/>
<stop offset="1" stop-color="#FCBF31"/>
</linearGradient>
<linearGradient id="paint8_linear" x1="76.7629" y1="9.66743" x2="81.5383" y2="9.66743" gradientUnits="userSpaceOnUse">
<stop stop-color="#FCBF31"/>
<stop offset="1" stop-color="#F9A114"/>
</linearGradient>
<linearGradient id="esaf-five-stars-paint9_linear" x1="111.831" y1="-0.148533" x2="111.861" y2="17.9035" gradientUnits="userSpaceOnUse">
<stop stop-color="#FFD43B"/>
<stop offset="1" stop-color="#F9A825"/>
</linearGradient>
<linearGradient id="esaf-five-stars-paint10_linear" x1="116.725" y1="9.68464" x2="121.5" y2="9.68464" gradientUnits="userSpaceOnUse">
<stop stop-color="#F9A114"/>
<stop offset="1" stop-color="#FCBF31"/>
</linearGradient>
<linearGradient id="esaf-five-stars-paint11_linear" x1="102.184" y1="9.66743" x2="106.959" y2="9.66743" gradientUnits="userSpaceOnUse">
<stop stop-color="#FCBF31"/>
<stop offset="1" stop-color="#F9A114"/>
</linearGradient>
<linearGradient id="esaf-five-stars-paint12_linear" x1="60.9889" y1="-0.148533" x2="61.0193" y2="17.9035" gradientUnits="userSpaceOnUse">
<stop stop-color="#FFD43B"/>
<stop offset="1" stop-color="#F9A825"/>
</linearGradient>
<linearGradient id="esaf-five-stars-paint13_linear" x1="65.8826" y1="9.68464" x2="70.658" y2="9.68464" gradientUnits="userSpaceOnUse">
<stop stop-color="#F9A114"/>
<stop offset="1" stop-color="#FCBF31"/>
</linearGradient>
<linearGradient id="esaf-five-stars-paint14_linear" x1="51.342" y1="9.66743" x2="56.1173" y2="9.66743" gradientUnits="userSpaceOnUse">
<stop stop-color="#FCBF31"/>
<stop offset="1" stop-color="#F9A114"/>
</linearGradient>
<clipPath id="esaf-five-stars-clip0">
<rect width="121" height="19" fill="white" transform="translate(0.5)"/>
</clipPath>
</defs>
</svg>
