<svg width="569" height="521" viewBox="0 0 569 521" fill="none" xmlns="http://www.w3.org/2000/svg">
<g opacity="0.15">
<path d="M113.803 195.775L68.4774 170.814L23.165 195.752L23.1617 245.678L68.4876 270.639L113.788 245.657L113.803 195.775Z" fill="#3E3E3E"/>
<path d="M209.803 195.775L164.477 170.814L119.165 195.752L119.162 245.678L164.488 270.639L209.788 245.657L209.803 195.775Z" fill="#3E3E3E"/>
<path d="M305.803 195.775L260.477 170.814L215.165 195.752L215.162 245.678L260.488 270.639L305.788 245.657L305.803 195.775Z" fill="#3E3E3E"/>
<path d="M401.803 195.775L356.477 170.814L311.165 195.752L311.162 245.678L356.488 270.639L401.788 245.657L401.803 195.775Z" fill="#3E3E3E"/>
<path d="M401.803 354.108L356.477 329.147L311.165 354.085L311.162 404.011L356.488 428.972L401.788 403.99L401.803 354.108Z" fill="#3E3E3E"/>
<path d="M497.804 354.108L452.478 329.147L407.165 354.085L407.162 404.011L452.488 428.972L497.788 403.99L497.804 354.108Z" fill="#3E3E3E"/>
<path d="M305.804 37.4405L260.478 12.4802L215.166 37.4182L215.163 87.3443L260.489 112.305L305.789 87.3228L305.804 37.4405Z" fill="#3E3E3E"/>
<path d="M161.803 274.94L116.477 249.98L71.165 274.918L71.1617 324.844L116.488 349.805L161.788 324.823L161.803 274.94Z" fill="#3E3E3E"/>
<path d="M257.803 274.94L212.477 249.98L167.165 274.918L167.162 324.844L212.488 349.805L257.788 324.823L257.803 274.94Z" fill="#3E3E3E"/>
<path d="M353.803 274.94L308.477 249.98L263.165 274.918L263.162 324.844L308.488 349.805L353.788 324.823L353.803 274.94Z" fill="#3E3E3E"/>
<path d="M449.803 274.94L404.477 249.98L359.165 274.918L359.162 324.844L404.488 349.805L449.788 324.823L449.803 274.94Z" fill="#3E3E3E"/>
<path d="M545.804 274.94L500.478 249.98L455.165 274.918L455.162 324.844L500.488 349.805L545.788 324.823L545.804 274.94Z" fill="#3E3E3E"/>
<path d="M449.803 433.275L404.477 408.314L359.165 433.252L359.162 483.178L404.488 508.139L449.788 483.157L449.803 433.275Z" fill="#3E3E3E"/>
<path d="M545.804 433.275L500.478 408.314L455.165 433.252L455.162 483.178L500.488 508.139L545.788 483.157L545.804 433.275Z" fill="#3E3E3E"/>
<path d="M161.803 116.607L116.477 91.6472L71.165 116.585L71.1617 166.511L116.488 191.472L161.788 166.49L161.803 116.607Z" fill="#3E3E3E"/>
<path d="M257.803 116.607L212.477 91.6472L167.165 116.585L167.162 166.511L212.488 191.472L257.788 166.49L257.803 116.607Z" fill="#3E3E3E"/>
<path d="M353.803 116.607L308.477 91.6472L263.165 116.585L263.162 166.511L308.488 191.472L353.788 166.49L353.803 116.607Z" fill="#3E3E3E"/>
</g>
</svg>
