<svg width="1455" height="475" viewBox="0 0 1455 475" fill="none" xmlns="http://www.w3.org/2000/svg">
<path d="M129.244 217.642L92.927 197.884L56.621 217.625L56.6183 257.146L92.9352 276.905L129.231 257.129L129.244 217.642Z" fill="#F1F1F1"/>
<path d="M206.163 217.642L169.846 197.884L133.54 217.625L133.538 257.146L169.855 276.905L206.151 257.129L206.163 217.642Z" fill="#F1F1F1"/>
<path d="M283.082 217.642L246.765 197.884L210.459 217.625L210.456 257.146L246.773 276.905L283.069 257.129L283.082 217.642Z" fill="#F1F1F1"/>
<path d="M360.001 217.642L323.684 197.884L287.378 217.625L287.375 257.146L323.692 276.905L359.988 257.129L360.001 217.642Z" fill="#F1F1F1"/>
<path d="M436.92 217.642L400.603 197.884L364.297 217.625L364.295 257.146L400.611 276.904L436.908 257.129L436.92 217.642Z" fill="#F1F1F1"/>
<path d="M513.839 217.642L477.522 197.884L441.216 217.625L441.214 257.146L477.53 276.905L513.827 257.129L513.839 217.642Z" fill="#F1F1F1"/>
<path d="M590.758 217.642L554.441 197.884L518.135 217.625L518.132 257.146L554.449 276.905L590.745 257.129L590.758 217.642Z" fill="#F1F1F1"/>
<path d="M667.676 217.642L631.36 197.884L595.054 217.625L595.051 257.146L631.368 276.905L667.664 257.129L667.676 217.642Z" fill="#F1F1F1"/>
<path d="M744.595 217.642L708.279 197.884L671.973 217.625L671.97 257.146L708.287 276.905L744.583 257.129L744.595 217.642Z" fill="#F1F1F1"/>
<path d="M821.515 217.642L785.198 197.884L748.892 217.625L748.889 257.146L785.206 276.905L821.502 257.129L821.515 217.642Z" fill="#F1F1F1"/>
<path d="M898.434 217.642L862.117 197.884L825.811 217.625L825.808 257.146L862.125 276.904L898.421 257.129L898.434 217.642Z" fill="#F1F1F1"/>
<path d="M975.353 217.642L939.036 197.884L902.73 217.625L902.727 257.146L939.044 276.904L975.34 257.129L975.353 217.642Z" fill="#F1F1F1"/>
<path d="M1052.27 217.642L1015.95 197.884L979.649 217.625L979.646 257.146L1015.96 276.904L1052.26 257.129L1052.27 217.642Z" fill="#F1F1F1"/>
<path d="M1129.19 217.642L1092.87 197.884L1056.57 217.625L1056.56 257.146L1092.88 276.904L1129.18 257.129L1129.19 217.642Z" fill="#F1F1F1"/>
<path d="M1206.11 217.642L1169.79 197.884L1133.49 217.625L1133.48 257.146L1169.8 276.904L1206.1 257.129L1206.11 217.642Z" fill="#F1F1F1"/>
<path d="M1283.03 217.642L1246.71 197.884L1210.41 217.625L1210.4 257.146L1246.72 276.904L1283.02 257.129L1283.03 217.642Z" fill="#F1F1F1"/>
<path d="M129.244 342.979L92.927 323.22L56.621 342.961L56.6183 382.483L92.9352 402.241L129.231 382.466L129.244 342.979Z" fill="#F1F1F1"/>
<path d="M590.758 342.979L554.441 323.22L518.135 342.961L518.132 382.483L554.449 402.241L590.745 382.466L590.758 342.979Z" fill="#F1F1F1"/>
<path d="M667.676 342.979L631.36 323.22L595.054 342.961L595.051 382.483L631.368 402.241L667.664 382.466L667.676 342.979Z" fill="#F1F1F1"/>
<path d="M898.434 342.979L862.117 323.22L825.811 342.961L825.808 382.483L862.125 402.241L898.421 382.466L898.434 342.979Z" fill="#F1F1F1"/>
<path d="M975.353 342.979L939.036 323.22L902.73 342.961L902.727 382.483L939.044 402.241L975.34 382.466L975.353 342.979Z" fill="#F1F1F1"/>
<path d="M1283.03 342.979L1246.71 323.22L1210.41 342.961L1210.4 382.483L1246.72 402.241L1283.02 382.466L1283.03 342.979Z" fill="#F1F1F1"/>
<path d="M1359.95 342.979L1323.63 323.22L1287.32 342.961L1287.32 382.483L1323.64 402.241L1359.93 382.466L1359.95 342.979Z" fill="#F1F1F1"/>
<path d="M436.918 92.306L400.601 72.5475L364.295 92.2883L364.293 131.81L400.609 151.568L436.906 131.793L436.918 92.306Z" fill="#F1F1F1"/>
<path d="M513.838 92.306L477.521 72.5475L441.215 92.2883L441.212 131.81L477.529 151.568L513.825 131.793L513.838 92.306Z" fill="#F1F1F1"/>
<path d="M744.594 92.306L708.278 72.5475L671.972 92.2883L671.969 131.81L708.286 151.568L744.582 131.793L744.594 92.306Z" fill="#F1F1F1"/>
<path d="M821.513 92.306L785.196 72.5475L748.89 92.2883L748.887 131.81L785.204 151.568L821.5 131.793L821.513 92.306Z" fill="#F1F1F1"/>
<path d="M898.432 92.306L862.115 72.5475L825.809 92.2883L825.807 131.81L862.123 151.568L898.42 131.793L898.432 92.306Z" fill="#F1F1F1"/>
<path d="M975.351 92.306L939.034 72.5475L902.728 92.2883L902.725 131.81L939.042 151.568L975.338 131.793L975.351 92.306Z" fill="#F1F1F1"/>
<path d="M1052.27 92.306L1015.95 72.5475L979.647 92.2883L979.644 131.81L1015.96 151.568L1052.26 131.793L1052.27 92.306Z" fill="#F1F1F1"/>
<path d="M1283.03 92.306L1246.71 72.5475L1210.4 92.2883L1210.4 131.81L1246.72 151.568L1283.01 131.793L1283.03 92.306Z" fill="#F1F1F1"/>
<path d="M1359.95 92.306L1323.63 72.5475L1287.32 92.2883L1287.32 131.81L1323.64 151.568L1359.93 131.793L1359.95 92.306Z" fill="#F1F1F1"/>
<path d="M1436.86 92.306L1400.55 72.5475L1364.24 92.2883L1364.24 131.81L1400.56 151.568L1436.85 131.793L1436.86 92.306Z" fill="#F1F1F1"/>
<path d="M90.7839 280.311L54.467 260.552L18.161 280.293L18.1584 319.814L54.4752 339.573L90.7713 319.797L90.7839 280.311Z" fill="#F1F1F1"/>
<path d="M167.702 280.311L131.385 260.552L95.0795 280.293L95.0768 319.814L131.394 339.573L167.69 319.797L167.702 280.311Z" fill="#F1F1F1"/>
<path d="M244.621 280.311L208.304 260.552L171.998 280.293L171.996 319.814L208.313 339.573L244.609 319.797L244.621 280.311Z" fill="#F1F1F1"/>
<path d="M398.459 280.311L362.142 260.552L325.836 280.293L325.834 319.814L362.151 339.573L398.447 319.797L398.459 280.311Z" fill="#F1F1F1"/>
<path d="M475.378 280.311L439.061 260.552L402.755 280.293L402.752 319.814L439.069 339.573L475.365 319.797L475.378 280.311Z" fill="#F1F1F1"/>
<path d="M552.297 280.311L515.98 260.552L479.674 280.293L479.671 319.814L515.988 339.573L552.284 319.797L552.297 280.311Z" fill="#F1F1F1"/>
<path d="M629.216 280.311L592.899 260.552L556.593 280.293L556.59 319.814L592.907 339.573L629.203 319.797L629.216 280.311Z" fill="#F1F1F1"/>
<path d="M706.135 280.311L669.818 260.552L633.512 280.293L633.509 319.814L669.826 339.573L706.122 319.797L706.135 280.311Z" fill="#F1F1F1"/>
<path d="M783.054 280.311L746.737 260.552L710.431 280.293L710.428 319.814L746.745 339.573L783.041 319.797L783.054 280.311Z" fill="#F1F1F1"/>
<path d="M859.973 280.311L823.656 260.552L787.35 280.293L787.347 319.814L823.664 339.573L859.96 319.797L859.973 280.311Z" fill="#F1F1F1"/>
<path d="M936.892 280.311L900.575 260.552L864.269 280.293L864.266 319.814L900.583 339.573L936.879 319.797L936.892 280.311Z" fill="#F1F1F1"/>
<path d="M1013.81 280.311L977.494 260.552L941.188 280.293L941.185 319.814L977.502 339.573L1013.8 319.797L1013.81 280.311Z" fill="#F1F1F1"/>
<path d="M1090.73 280.311L1054.41 260.552L1018.11 280.293L1018.1 319.814L1054.42 339.573L1090.72 319.797L1090.73 280.311Z" fill="#F1F1F1"/>
<path d="M1167.65 280.311L1131.33 260.552L1095.03 280.293L1095.02 319.814L1131.34 339.573L1167.64 319.797L1167.65 280.311Z" fill="#F1F1F1"/>
<path d="M1244.57 280.311L1208.25 260.552L1171.94 280.293L1171.94 319.814L1208.26 339.573L1244.56 319.797L1244.57 280.311Z" fill="#F1F1F1"/>
<path d="M1321.49 280.311L1285.17 260.552L1248.86 280.293L1248.86 319.814L1285.18 339.573L1321.47 319.797L1321.49 280.311Z" fill="#F1F1F1"/>
<path d="M1398.41 280.311L1362.09 260.552L1325.78 280.293L1325.78 319.814L1362.1 339.573L1398.39 319.797L1398.41 280.311Z" fill="#F1F1F1"/>
<path d="M1321.49 405.647L1285.17 385.888L1248.86 405.629L1248.86 445.151L1285.18 464.909L1321.47 445.134L1321.49 405.647Z" fill="#F1F1F1"/>
<path d="M1398.41 405.647L1362.09 385.888L1325.78 405.629L1325.78 445.151L1362.1 464.909L1398.39 445.134L1398.41 405.647Z" fill="#F1F1F1"/>
<path d="M90.7839 154.974L54.467 135.216L18.161 154.957L18.1584 194.478L54.4752 214.237L90.7713 194.461L90.7839 154.974Z" fill="#F1F1F1"/>
<path d="M244.621 154.974L208.304 135.216L171.998 154.957L171.996 194.478L208.313 214.237L244.609 194.461L244.621 154.974Z" fill="#F1F1F1"/>
<path d="M398.459 154.974L362.142 135.216L325.836 154.957L325.834 194.478L362.151 214.236L398.447 194.461L398.459 154.974Z" fill="#F1F1F1"/>
<path d="M475.378 154.974L439.061 135.216L402.755 154.957L402.752 194.478L439.069 214.237L475.365 194.461L475.378 154.974Z" fill="#F1F1F1"/>
<path d="M629.216 154.974L592.899 135.216L556.593 154.957L556.59 194.478L592.907 214.237L629.203 194.461L629.216 154.974Z" fill="#F1F1F1"/>
<path d="M706.135 154.974L669.818 135.216L633.512 154.957L633.509 194.478L669.826 214.237L706.122 194.461L706.135 154.974Z" fill="#F1F1F1"/>
<path d="M783.054 154.974L746.737 135.216L710.431 154.957L710.428 194.478L746.745 214.237L783.041 194.461L783.054 154.974Z" fill="#F1F1F1"/>
<path d="M859.973 154.974L823.656 135.216L787.35 154.957L787.347 194.478L823.664 214.237L859.96 194.461L859.973 154.974Z" fill="#F1F1F1"/>
<path d="M936.892 154.974L900.575 135.216L864.269 154.957L864.266 194.478L900.583 214.236L936.879 194.461L936.892 154.974Z" fill="#F1F1F1"/>
<path d="M1013.81 154.974L977.494 135.216L941.188 154.957L941.185 194.478L977.502 214.236L1013.8 194.461L1013.81 154.974Z" fill="#F1F1F1"/>
<path d="M1090.73 154.974L1054.41 135.216L1018.11 154.957L1018.1 194.478L1054.42 214.236L1090.72 194.461L1090.73 154.974Z" fill="#F1F1F1"/>
<path d="M1167.65 154.974L1131.33 135.216L1095.03 154.957L1095.02 194.478L1131.34 214.236L1167.64 194.461L1167.65 154.974Z" fill="#F1F1F1"/>
<path d="M1244.57 154.974L1208.25 135.216L1171.94 154.957L1171.94 194.478L1208.26 214.236L1244.56 194.461L1244.57 154.974Z" fill="#F1F1F1"/>
<path d="M1321.49 154.974L1285.17 135.216L1248.86 154.957L1248.86 194.478L1285.18 214.236L1321.47 194.461L1321.49 154.974Z" fill="#F1F1F1"/>
<path d="M1398.41 154.974L1362.09 135.216L1325.78 154.957L1325.78 194.478L1362.1 214.236L1398.39 194.461L1398.41 154.974Z" fill="#F1F1F1"/>
<path d="M398.459 29.6378L362.142 9.87927L325.836 29.6201L325.834 69.1415L362.151 88.9L398.447 69.1244L398.459 29.6378Z" fill="#F1F1F1"/>
<path d="M475.378 29.6378L439.061 9.87927L402.755 29.6201L402.753 69.1415L439.069 88.9L475.366 69.1244L475.378 29.6378Z" fill="#F1F1F1"/>
<path d="M552.297 29.6378L515.98 9.87927L479.674 29.6201L479.671 69.1415L515.988 88.9L552.284 69.1244L552.297 29.6378Z" fill="#F1F1F1"/>
<path d="M936.892 29.6378L900.575 9.87925L864.269 29.6201L864.266 69.1414L900.583 88.8999L936.879 69.1244L936.892 29.6378Z" fill="#F1F1F1"/>
<path d="M1013.81 29.6378L977.494 9.87925L941.188 29.6201L941.185 69.1414L977.502 88.8999L1013.8 69.1244L1013.81 29.6378Z" fill="#F1F1F1"/>
<path d="M1321.49 29.6378L1285.17 9.87925L1248.86 29.6201L1248.86 69.1414L1285.18 88.8999L1321.47 69.1244L1321.49 29.6378Z" fill="#F1F1F1"/>
<path d="M1398.41 29.6378L1362.09 9.87925L1325.78 29.6201L1325.78 69.1414L1362.1 88.8999L1398.39 69.1244L1398.41 29.6378Z" fill="#F1F1F1"/>
</svg>
