<svg width="46" height="46" viewBox="0 0 46 46" fill="none" xmlns="http://www.w3.org/2000/svg">
<path d="M23 45.2812C35.3056 45.2812 45.2812 35.3056 45.2812 23C45.2812 10.6944 35.3056 0.71875 23 0.71875C10.6944 0.71875 0.71875 10.6944 0.71875 23C0.71875 35.3056 10.6944 45.2812 23 45.2812ZM13.7103 38.3884L18.509 33.5898C21.3666 34.8032 24.6299 34.8047 27.491 33.5898L32.2897 38.3884C26.61 41.8312 19.39 41.8312 13.7103 38.3884ZM30.1875 23C30.1875 26.9632 26.9632 30.1875 23 30.1875C19.0368 30.1875 15.8125 26.9632 15.8125 23C15.8125 19.0368 19.0368 15.8125 23 15.8125C26.9632 15.8125 30.1875 19.0368 30.1875 23ZM38.3884 32.2897L33.5898 27.491C34.8031 24.6334 34.8047 21.3701 33.5898 18.509L38.3884 13.7103C41.8312 19.39 41.8312 26.61 38.3884 32.2897ZM32.2896 7.61156L27.4909 12.4102C24.6334 11.1969 21.3701 11.1953 18.509 12.4102L13.7103 7.61156C19.39 4.16884 26.61 4.16884 32.2896 7.61156ZM7.61156 13.7103L12.4102 18.509C11.1968 21.3666 11.1953 24.6299 12.4102 27.491L7.61156 32.2897C4.16884 26.61 4.16884 19.39 7.61156 13.7103Z" fill="#C5C2C4"/>
</svg>
