<svg width="44" height="44" viewBox="0 0 44 44" fill="none" xmlns="http://www.w3.org/2000/svg">
<path d="M27.0036 16.9964C31.3942 21.387 31.6766 28.3648 27.8415 33.0804C27.305 33.7447 27.6022 33.4126 20.5419 40.4728C15.8415 45.1732 8.23 45.1774 3.52716 40.4728C-1.17457 35.7729 -1.17655 28.1618 3.52716 23.458C6.34359 20.6416 7.98173 18.9979 8.97637 18.0047C9.61772 17.3643 10.7236 17.8024 10.7369 18.7087C10.7529 19.804 10.8897 20.8942 11.1447 21.9595C11.2278 22.3058 11.1214 22.6701 10.8696 22.9218L6.92943 26.8611C4.11454 29.6777 4.1032 34.2425 6.92943 37.0705C9.74603 39.8854 14.3108 39.8967 17.1388 37.0705L23.6004 30.608C26.4121 27.7957 26.4172 23.2163 23.6004 20.3995C23.0298 19.8279 22.367 19.3564 21.6399 19.0048C21.2426 18.8129 21.0227 18.3818 21.076 17.9438C21.1926 16.988 21.6171 16.0631 22.3492 15.3309L22.7252 14.9549C23.0367 14.6433 23.5138 14.5601 23.9077 14.7578C25.0248 15.3184 26.0722 16.065 27.0036 16.9964ZM40.4731 3.52653C35.7702 -1.17812 28.1587 -1.17391 23.4583 3.52653C16.398 10.5868 16.6952 10.2546 16.1588 10.9189C12.3236 15.6345 12.606 22.6123 16.9967 27.0029C17.9281 27.9343 18.9755 28.6809 20.0926 29.2415C20.4863 29.4392 20.9634 29.3559 21.2751 29.0444L21.651 28.6684C22.3832 27.9363 22.8077 27.0113 22.9242 26.0555C22.9776 25.6175 22.7577 25.1864 22.3604 24.9945C21.6332 24.643 20.9704 24.1715 20.3998 23.5998C17.583 20.783 17.5881 16.2036 20.3998 13.3913L26.8614 6.92879C29.6895 4.10256 34.2542 4.11391 37.0708 6.92879C39.897 9.75682 39.8857 14.3216 37.0708 17.1382L33.1307 21.0775C32.8789 21.3293 32.7726 21.6936 32.8556 22.0399C33.1107 23.1052 33.2474 24.1954 33.2634 25.2907C33.2767 26.197 34.3826 26.6351 35.0239 25.9947C36.0186 25.0014 37.6567 23.3578 40.4732 20.5414C45.1768 15.8376 45.1748 8.22653 40.4731 3.52653Z" fill="#C5C2C4"/>
</svg>
