<svg width="407" height="207" viewBox="0 0 407 207" fill="none" xmlns="http://www.w3.org/2000/svg">
<path d="M210.701 69.5978C224.181 74.5179 232.945 85.2804 229.921 93.5317C226.897 101.783 213.93 102.552 200.451 97.6318C186.971 92.7117 177.848 83.9992 180.872 75.6966C183.896 67.3941 197.222 64.6778 210.701 69.5978Z" fill="#F5D10E"/>
<path d="M239.71 48.7389C237.814 43.8701 230.587 43.4601 226.282 44.2801C220.183 45.4589 214.801 49.4564 210.445 53.7102C210.65 52.9414 210.804 52.1727 210.906 51.3527C211.162 49.7127 211.367 48.0727 211.419 46.4327C211.675 40.6414 210.445 28.7513 202.911 27.5725C197.785 26.8038 193.788 32.8513 192.353 37.0026C190.302 42.8964 191.122 49.6614 192.711 55.5552C193.531 58.6815 194.608 61.7565 196.299 64.524C197.785 66.984 199.733 68.8803 201.937 70.674C202.757 71.2891 203.474 71.6478 204.499 71.5966C205.012 71.5966 205.525 71.4941 206.037 71.4941C209.164 71.4428 212.187 70.8791 215.211 70.1103C217.825 69.3928 220.388 68.4703 222.951 67.4965C224.488 66.9328 226.026 66.2665 227.512 65.4978C232.74 62.8328 242.478 55.8115 239.71 48.7389Z" fill="white"/>
<path d="M237.865 103.372C235.354 102.296 232.842 101.219 230.331 100.143C230.895 95.2742 229.87 89.9442 226.692 86.1517C225.564 84.8192 224.129 83.5892 222.438 83.1279C221.054 82.7179 219.568 82.7179 218.082 82.8717C215.878 78.9766 212.392 75.4404 208.343 73.5441C213.418 73.0828 218.44 71.4428 223.771 69.4441C225.411 68.8291 227 68.1116 228.537 67.3428C230.28 66.4203 245.604 58.169 241.658 47.9702C239.146 41.5127 230.228 41.3589 225.872 42.1789C221.772 42.9477 217.62 44.9977 213.469 48.2264C213.52 47.6627 213.571 47.0477 213.571 46.4839C213.674 44.4852 214.084 27.1113 203.269 25.4713C196.402 24.395 191.84 32.0826 190.405 36.2851C188.56 41.6664 188.662 48.3289 190.712 56.0677C191.379 58.5278 192.301 61.5003 193.839 64.3703C193.121 64.2165 192.353 64.1653 191.584 64.2165C190.2 64.2678 188.867 64.5753 187.586 65.0365C186.663 61.8078 183.742 59.5528 180.308 58.4765C177.643 57.6565 174.619 57.964 172.261 59.604C171.236 60.3215 170.365 61.244 169.647 62.269C168.93 63.294 168.366 64.4215 167.802 65.549C167.649 65.9078 167.546 66.3178 167.392 66.6253C167.649 65.2415 168.264 63.8578 168.93 62.6278C169.186 62.1153 169.494 61.654 169.75 61.1415C170.57 59.809 168.469 58.6303 167.7 59.9115C164.727 64.729 163.292 70.6228 166.06 75.9016C167.392 78.4129 169.596 80.6166 172.313 81.4879C174.927 82.3591 177.848 81.9491 180.308 80.7191C184.511 78.5666 186.766 74.4666 187.637 70.0078C189.072 69.1878 190.559 68.6241 192.25 68.6753C193.019 68.7266 193.788 68.8291 194.505 69.2391C195.171 69.5978 195.786 70.1103 196.35 70.6228C196.607 70.8791 196.863 71.1353 197.119 71.3916C197.273 71.5966 197.478 71.8016 197.632 72.0578C197.734 72.1603 197.785 72.3141 197.837 72.4166C197.837 72.4678 198.042 72.8266 198.042 72.7753C192.711 74.4153 188.201 78.8229 185.843 83.7942C183.435 88.7654 182.461 96.5555 188.252 99.7842C193.019 102.449 197.58 96.7092 199.682 93.173C202.552 88.3042 204.294 82.3591 203.782 76.6704C206.396 77.1316 209.061 78.9766 211.009 80.8216C211.982 81.7441 212.854 82.7692 213.571 83.8454C210.855 84.8704 208.343 86.5617 206.601 88.8679C204.192 92.0967 203.116 96.5042 203.731 100.451C204.294 104.141 207.113 107.267 211.111 106.191C215.211 105.114 218.03 100.758 219.517 97.068C220.798 93.8392 220.798 90.1492 219.824 86.8179C220.798 86.8692 221.618 87.0742 222.387 87.6379C223.104 88.2017 223.822 88.9704 224.334 89.7392C225.103 90.918 225.616 92.148 225.974 93.5317C226.282 94.7617 226.436 95.9917 226.436 97.273C226.436 97.9392 226.436 98.6055 226.385 99.2718C226.333 99.8867 226.18 100.553 226.128 101.168C226.077 102.142 226.692 102.962 227.563 103.321C230.485 104.499 233.457 105.627 236.43 106.754C238.378 107.523 239.762 104.243 237.865 103.372ZM197.734 86.7667C197.119 88.4579 196.299 90.0979 195.325 91.6355C194.761 92.558 194.095 93.4292 193.326 94.198C192.711 94.813 191.635 95.9917 190.61 95.8892C189.739 95.7867 189.021 94.403 188.816 93.6855C187.74 90.4567 189.124 86.7154 190.866 83.9479C192.301 81.6929 194.249 79.6941 196.504 78.3104C197.427 77.7466 198.298 77.3366 199.272 77.0804C199.323 77.9516 199.374 78.8229 199.323 79.7454C199.22 82.0004 198.605 84.4092 197.734 86.7667ZM203.936 69.3928C202.706 68.9316 201.783 67.8553 200.912 66.9328C199.989 65.9591 199.169 64.9853 198.452 63.8578C196.76 61.1415 195.684 58.1178 194.864 55.0427C193.019 48.1239 192.865 42.2814 194.454 37.7201C195.735 34.0814 199.118 29.1613 202.654 29.6738C208.087 30.4938 209.625 40.0776 209.369 46.3302C209.317 47.8677 209.112 49.4564 208.856 50.994C208.753 51.7627 208.548 52.4802 208.395 53.1977L206.755 60.3215L211.931 55.1965C216.954 50.2252 221.926 47.2527 226.641 46.3302C230.434 45.6127 236.379 46.0739 237.711 49.4564C239.71 54.5815 232.125 60.6803 226.59 63.5503C225.206 64.2678 223.771 64.8828 222.284 65.4465C219.312 66.5228 216.288 67.5478 213.213 68.3166C211.675 68.6753 210.086 69.0341 208.497 69.2391C207.216 69.4953 205.217 69.8541 203.936 69.3928ZM214.391 97.683C213.623 99.0155 212.649 100.297 211.419 101.219C210.804 101.681 209.727 102.398 208.959 101.834C208.138 101.271 208.036 100.092 207.985 99.2205C207.882 97.8367 208.036 96.5042 208.395 95.1717C209.215 91.9942 211.162 89.6879 214.135 88.2017C214.545 87.9967 215.006 87.8429 215.468 87.6379C216.441 90.9179 216.288 94.4542 214.391 97.683Z" fill="black"/>
<path d="M67.0903 124.282H88.2066V131.303H74.8295V144.321H85.4902V151.342H74.8295V166.563H88.2066V173.585H67.0903V124.282Z" fill="black"/>
<path d="M106.914 173.585C106.709 173.175 106.401 171.637 106.35 169.382C105.018 172.56 102.352 174.302 98.7135 174.302C93.947 174.302 90.8718 170.868 90.8718 165.282C90.8718 159.645 93.1782 156.416 99.5336 153.29C104.659 150.727 105.376 150.112 105.376 148.164V147.447C105.376 144.577 104.454 143.347 102.352 143.347C100.046 143.347 98.9698 144.833 98.9698 147.498V148.831H91.9481V147.908C91.9481 140.938 95.5358 136.941 102.455 136.941C109.938 136.941 112.859 140.887 112.859 148.779V163.232C112.859 168.306 113.218 171.535 113.731 173.585H106.914ZM105.428 161.9V155.75C104.864 156.467 103.736 157.185 101.789 158.415C99.5336 159.85 98.406 161.643 98.406 164.001C98.406 166.512 99.4823 167.896 101.584 167.896C104.095 167.896 105.428 165.846 105.428 161.9Z" fill="black"/>
<path d="M117.216 163.335V162.207H124.391V163.54C124.391 166.768 125.826 167.896 127.723 167.896C129.619 167.896 130.952 166.82 130.952 164.001C130.952 161.336 128.543 159.901 125.724 158.312C121.931 156.108 117.575 153.648 117.575 146.883C117.575 140.887 121.009 136.941 127.671 136.941C133.822 136.941 137.768 140.887 137.768 147.447V148.216H130.747V147.242C130.747 144.372 129.619 143.347 127.774 143.347C126.236 143.347 124.904 144.269 124.904 146.729C124.904 149.702 127.466 151.24 130.388 152.88C134.181 154.981 138.435 157.441 138.435 163.847C138.435 170.202 135.001 174.251 128.133 174.251C121.162 174.302 117.216 170.202 117.216 163.335Z" fill="black"/>
<path d="M142.432 184.501V178.146C143.304 178.454 144.175 178.556 145.2 178.556C147.763 178.556 148.634 177.839 149.146 175.532L149.3 175.02L140.638 137.607H148.224L152.99 162.361L157.296 137.607H164.266L156.322 176.711C155.041 182.861 152.222 185.219 146.481 185.219C145.097 185.219 143.714 185.065 142.432 184.501Z" fill="black"/>
<path d="M183.332 163.95H174.363L173.03 173.585H165.855L173.902 124.282H184.409L192.455 173.585H184.716L183.332 163.95ZM182.358 157.236L178.822 132.38L175.388 157.236H182.358Z" fill="#DFC015"/>
<path d="M205.678 133.302V137.658H211.111V144.013H205.678V173.585H198.195V144.013H194.095V137.658H198.195V132.328C198.195 126.486 201.066 123.616 207.011 123.616C208.549 123.616 209.83 123.821 211.111 124.333V130.688C210.189 130.381 209.369 130.278 208.549 130.278C206.447 130.176 205.678 131.047 205.678 133.302Z" fill="#DFC015"/>
<path d="M225.718 123.564C227.256 123.564 228.537 123.769 229.819 124.282V130.637C228.896 130.329 228.076 130.227 227.256 130.227C225.155 130.227 224.386 131.098 224.386 133.302V137.658H229.819V144.013H224.386V173.585H216.903V144.013H212.803V137.658H216.903V132.328C216.903 126.486 219.773 123.564 225.718 123.564ZM240.889 125.051V133.251H233.406V125.051H240.889ZM233.458 137.658H240.889V173.585H233.406V137.658H233.458Z" fill="#DFC015"/>
<path d="M246.681 124.282H254.164V173.585H246.681V124.282Z" fill="#DFC015"/>
<path d="M259.955 125.051H267.438V133.251H259.955V125.051ZM259.955 137.658H267.438V173.585H259.955V137.658Z" fill="#DFC015"/>
<path d="M287.683 173.585C287.478 173.175 287.171 171.637 287.119 169.382C285.787 172.56 283.122 174.302 279.483 174.302C274.716 174.302 271.641 170.868 271.641 165.282C271.641 159.645 273.947 156.416 280.303 153.29C285.428 150.727 286.145 150.112 286.145 148.164V147.447C286.145 144.577 285.223 143.347 283.122 143.347C280.815 143.347 279.739 144.833 279.739 147.498V148.831H272.717V147.908C272.717 140.938 276.305 136.941 283.224 136.941C290.707 136.941 293.628 140.887 293.628 148.779V163.232C293.628 168.306 293.987 171.535 294.5 173.585H287.683ZM286.197 161.9V155.75C285.633 156.467 284.505 157.185 282.558 158.415C280.303 159.85 279.175 161.643 279.175 164.001C279.175 166.512 280.251 167.896 282.353 167.896C284.864 167.896 286.197 165.846 286.197 161.9Z" fill="#DFC015"/>
<path d="M308.902 144.013V164.565C308.902 166.82 309.671 167.64 311.772 167.64C312.541 167.64 313.412 167.486 314.335 167.23V173.585C313.054 174.097 311.772 174.302 310.235 174.302C304.289 174.302 301.419 171.432 301.419 165.59V144.013H297.319V137.658H301.778L302.495 127.921H308.902V137.658H314.335V144.013H308.902Z" fill="#DFC015"/>
<path d="M339.91 148.677V157.287H325.251V163.335C325.251 166.512 326.533 167.691 328.993 167.691C331.402 167.691 332.734 166.512 332.734 163.335V161.951H339.91V162.566C339.91 170.048 336.015 174.251 328.839 174.251C321.664 174.251 317.769 169.997 317.769 162.566V148.626C317.769 141.143 321.664 136.941 328.839 136.941C336.015 136.941 339.91 141.194 339.91 148.677ZM332.581 151.342V147.959C332.581 144.782 331.248 143.603 328.942 143.603C326.635 143.603 325.251 144.782 325.251 147.959V151.342H332.581Z" fill="#DFC015"/>
</svg>
