<svg width="46" height="33" viewBox="0 0 46 33" fill="none" xmlns="http://www.w3.org/2000/svg">
<path d="M43.7 0.3125H2.3C1.02997 0.3125 0 1.34807 0 2.625V30.375C0 31.6519 1.02997 32.6875 2.3 32.6875H43.7C44.97 32.6875 46 31.6519 46 30.375V2.625C46 1.34807 44.97 0.3125 43.7 0.3125ZM42.55 29.2188H3.45V3.78125H42.55V29.2188ZM21.275 21.125H27.025C27.3427 21.125 27.6 20.8663 27.6 20.5469V18.2344C27.6 17.915 27.3427 17.6562 27.025 17.6562H21.275C20.9573 17.6562 20.7 17.915 20.7 18.2344V20.5469C20.7 20.8663 20.9573 21.125 21.275 21.125ZM38.525 17.6562H32.775C32.4573 17.6562 32.2 17.915 32.2 18.2344V20.5469C32.2 20.8663 32.4573 21.125 32.775 21.125H38.525C38.8427 21.125 39.1 20.8663 39.1 20.5469V18.2344C39.1 17.915 38.8427 17.6562 38.525 17.6562ZM21.275 15.3438H38.525C38.8427 15.3438 39.1 15.085 39.1 14.7656V12.4531C39.1 12.1337 38.8427 11.875 38.525 11.875H21.275C20.9573 11.875 20.7 12.1337 20.7 12.4531V14.7656C20.7 15.085 20.9573 15.3438 21.275 15.3438ZM9.683 16.6243L12.7154 17.451C13.0166 17.5334 13.225 17.7798 13.225 18.0508C13.225 18.3977 12.9016 18.6795 12.5019 18.6795H10.6088C10.3105 18.6795 10.0172 18.6044 9.76278 18.4663C9.54141 18.3457 9.27116 18.3673 9.09866 18.5516L8.23112 19.4716C8.00759 19.7086 8.04425 20.0959 8.31234 20.2802C8.90891 20.6885 9.61041 20.9219 10.35 20.9682V21.7031C10.35 22.0225 10.6073 22.2812 10.925 22.2812H12.075C12.3927 22.2812 12.65 22.0225 12.65 21.7031V20.9624C14.2442 20.8829 15.525 19.6204 15.525 18.0501C15.525 16.737 14.6179 15.5728 13.317 15.2195L10.2846 14.3927C9.98344 14.3104 9.775 14.0639 9.775 13.7929C9.775 13.4461 10.0984 13.1642 10.4981 13.1642H12.3912C12.6895 13.1642 12.9828 13.2394 13.2372 13.3774C13.4586 13.4974 13.7288 13.4764 13.9013 13.2921L14.7689 12.3722C14.9924 12.1352 14.9558 11.7478 14.6877 11.5635C14.0911 11.1552 13.3896 10.9218 12.65 10.8756V10.1406C12.65 9.82121 12.3927 9.5625 12.075 9.5625H10.925C10.6073 9.5625 10.35 9.82121 10.35 10.1406V10.8813C8.75581 10.9608 7.475 12.2233 7.475 13.7937C7.475 15.1067 8.38206 16.2709 9.683 16.6243Z" fill="#C5C2C4"/>
</svg>
