<svg width="43" height="54" viewBox="0 0 43 54" fill="none" xmlns="http://www.w3.org/2000/svg">
<path d="M41.5962 35.2865L24.082 17.9896C21.2527 15.0921 16.2341 17.1357 16.2341 21.2154V46.6937C16.2341 50.7224 21.1436 52.817 24.0457 49.956L25.784 48.2482L27.0568 51.2186L27.0641 51.2405L27.0714 51.2624C28.0824 53.5322 30.7299 54.6123 33.0501 53.6417L36.0976 52.3718L36.1194 52.3645L36.1412 52.3572C37.2759 51.8682 38.1559 50.9705 38.6069 49.8247C39.0578 48.6934 39.036 47.4454 38.556 46.3288L37.1959 43.1613H38.396C42.4545 43.154 44.5856 38.1547 41.5962 35.2865ZM31.8863 39.6509L35.3484 47.7155C35.5885 48.2774 35.3121 48.8978 34.7593 49.1386L31.7118 50.4085C31.1444 50.6421 30.5044 50.372 30.2644 49.832L26.9768 42.1761L21.6018 47.46C20.889 48.1607 19.7253 47.6279 19.7253 46.701V21.2154C19.7253 20.2447 20.9618 19.7703 21.6018 20.4564L39.1815 37.8044C39.8943 38.4685 39.3706 39.6509 38.4032 39.6509H31.8863ZM27.1587 15.457C27.4714 15.7052 27.8423 15.822 28.2133 15.822C28.7224 15.822 29.2243 15.5957 29.5589 15.1651L32.3591 11.5817C32.941 10.8372 32.81 9.75709 32.0682 9.17323C31.3263 8.58936 30.2498 8.72073 29.668 9.46516L26.8677 13.0486C26.2859 13.793 26.4168 14.8732 27.1587 15.457ZM21.0854 13.4865C21.1 13.4865 21.1072 13.4865 21.1218 13.4865C22.0455 13.4865 22.8092 12.7421 22.831 11.8079L23.0419 1.75087C23.0638 0.802095 22.3146 0.0211787 21.3691 -0.00071616C20.4235 -0.022611 19.6453 0.729112 19.6235 1.67789L19.4125 11.7349C19.3907 12.6837 20.1399 13.4719 21.0854 13.4865ZM11.7392 19.6609H1.70924C0.763701 19.6609 0 20.4272 0 21.376C0 22.3247 0.763701 23.0911 1.70924 23.0911H11.7392C12.6847 23.0911 13.4484 22.3247 13.4484 21.376C13.4484 20.4272 12.6847 19.6609 11.7392 19.6609ZM14.583 12.5012L9.25896 9.20972C8.45162 8.71343 7.40426 8.96158 6.90967 9.77168C6.41509 10.5818 6.66238 11.6327 7.46972 12.129L12.7938 15.4206C13.0702 15.5957 13.3829 15.676 13.6884 15.676C14.263 15.676 14.8231 15.3841 15.1431 14.8586C15.6377 14.0485 15.3904 12.9975 14.583 12.5012Z" fill="#C5C2C4"/>
</svg>
