<svg width="45" height="45" viewBox="0 0 45 45" fill="none" xmlns="http://www.w3.org/2000/svg">
<path d="M11.2502 19.6882C9.6945 19.6882 8.43767 20.945 8.43767 22.5007C8.43767 24.0563 9.6945 25.3132 11.2502 25.3132C12.8058 25.3132 14.0627 24.0563 14.0627 22.5007C14.0627 20.945 12.797 19.6882 11.2502 19.6882ZM36.7912 5.1071C31.5705 0.81804 24.7238 -0.878249 17.9826 0.44011C9.21989 2.14519 2.17106 9.15886 0.448407 17.904C-1.01937 25.3044 1.16032 32.696 6.40739 38.1716C10.5646 42.5133 16.049 45.0094 21.1642 45.0094C21.9377 45.0094 22.7023 44.9567 23.4582 44.8337C25.5851 44.5085 27.3781 43.1901 28.3888 41.2214C29.4699 39.112 29.4699 36.5895 28.4064 34.4889C27.8703 33.4342 27.923 32.1862 28.5646 31.1491C29.1799 30.112 30.2082 29.5319 31.3771 29.5319H37.7228C41.801 29.5319 45.0002 26.3942 45.0002 22.3864C44.9826 15.6716 41.9855 9.3698 36.7912 5.1071ZM37.7228 25.3132H31.3771C28.7492 25.3132 26.3498 26.6667 24.9611 28.943C23.5549 31.237 23.4406 34.0231 24.6447 36.405C25.0929 37.2926 25.0929 38.4001 24.6271 39.2966C24.3986 39.736 23.8625 40.5007 22.8166 40.6676C18.4836 41.3444 13.2453 39.2087 9.4572 35.2536C5.16814 30.78 3.39274 24.7594 4.58806 18.7301C5.98552 11.6462 11.6896 5.95964 18.7912 4.57976C24.2931 3.4987 29.8742 4.88738 34.1105 8.36784C38.3381 11.8395 40.7639 16.946 40.7814 22.3952C40.7814 24.03 39.4367 25.3132 37.7228 25.3132ZM14.0627 11.2507C12.507 11.2507 11.2502 12.5075 11.2502 14.0632C11.2502 15.6188 12.507 16.8757 14.0627 16.8757C15.6183 16.8757 16.8752 15.6188 16.8752 14.0632C16.8752 12.5075 15.6095 11.2507 14.0627 11.2507ZM22.5002 8.42937C20.9445 8.42937 19.6877 9.6862 19.6877 11.2419C19.6877 12.7975 20.9445 14.0544 22.5002 14.0544C24.0558 14.0544 25.3127 12.7975 25.3127 11.2419C25.3127 9.69499 24.0558 8.42937 22.5002 8.42937ZM30.9377 11.2507C29.382 11.2507 28.1252 12.5075 28.1252 14.0632C28.1252 15.6188 29.382 16.8757 30.9377 16.8757C32.4933 16.8757 33.7502 15.6188 33.7502 14.0632C33.7502 12.5075 32.4933 11.2507 30.9377 11.2507Z" fill="#C5C2C4"/>
</svg>
