<svg width="52" height="38" viewBox="0 0 52 38" fill="none" xmlns="http://www.w3.org/2000/svg">
<path d="M51.4386 31.0889L39.997 11.061C38.3996 8.26375 34.4013 8.26375 32.8039 11.061L21.3615 31.0881C19.7649 33.8829 21.7628 37.375 24.9584 37.375H47.8417C51.0372 37.375 53.0352 33.8829 51.4386 31.0889ZM36.4 33.4375C36.0144 33.4375 35.6373 33.322 35.3167 33.1057C34.996 32.8894 34.7461 32.5819 34.5985 32.2222C34.4509 31.8624 34.4123 31.4666 34.4875 31.0847C34.5627 30.7028 34.7485 30.352 35.0212 30.0766C35.2939 29.8013 35.6413 29.6138 36.0196 29.5378C36.3979 29.4619 36.7899 29.5009 37.1463 29.6499C37.5026 29.7989 37.8071 30.0512 38.0214 30.375C38.2357 30.6987 38.35 31.0794 38.35 31.4688C38.35 31.9909 38.1446 32.4917 37.7789 32.8609C37.4132 33.2301 36.9172 33.4375 36.4 33.4375ZM37.9503 26.6453C37.9261 26.8881 37.8135 27.1132 37.6342 27.2769C37.455 27.4406 37.2219 27.5313 36.9802 27.5312H35.8207C35.5789 27.5315 35.3456 27.4409 35.1661 27.2772C34.9867 27.1135 34.874 26.8883 34.8498 26.6453L34.0706 18.7703C34.057 18.6334 34.0719 18.4952 34.1145 18.3645C34.157 18.2338 34.2262 18.1136 34.3176 18.0115C34.409 17.9095 34.5206 17.828 34.6452 17.7721C34.7697 17.7163 34.9045 17.6875 35.0407 17.6875H37.7602C37.8964 17.6875 38.0312 17.7163 38.1557 17.7721C38.2803 17.828 38.3918 17.9095 38.4832 18.0115C38.5747 18.1136 38.6439 18.2338 38.6864 18.3645C38.729 18.4952 38.7439 18.6334 38.7303 18.7703L37.9503 26.6453ZM14.3 10.4688V19.6562C14.3 20.1784 14.5055 20.6792 14.8712 21.0484C15.2369 21.4176 15.7328 21.625 16.25 21.625C16.7672 21.625 17.2632 21.4176 17.6289 21.0484C17.9946 20.6792 18.2 20.1784 18.2 19.6562V10.4688C18.2 9.9466 17.9946 9.44585 17.6289 9.07663C17.2632 8.70742 16.7672 8.5 16.25 8.5C15.7328 8.5 15.2369 8.70742 14.8712 9.07663C14.5055 9.44585 14.3 9.9466 14.3 10.4688ZM18.2285 33.4375H5.2C4.85522 33.4375 4.52456 33.2992 4.28077 33.0531C4.03697 32.8069 3.9 32.4731 3.9 32.125V5.875C3.9 5.5269 4.03697 5.19306 4.28077 4.94692C4.52456 4.70078 4.85522 4.5625 5.2 4.5625H31.2C31.5448 4.5625 31.8755 4.70078 32.1193 4.94692C32.3631 5.19306 32.5 5.5269 32.5 5.875V7.64441C33.6213 6.8323 34.9505 6.33848 36.4 6.33848V5.875C36.4 4.48261 35.8522 3.14726 34.877 2.16269C33.9018 1.17812 32.5792 0.625 31.2 0.625H5.2C3.82088 0.625 2.49824 1.17812 1.52305 2.16269C0.547856 3.14726 0 4.48261 0 5.875L0 32.125C0 33.5174 0.547856 34.8527 1.52305 35.8373C2.49824 36.8219 3.82088 37.375 5.2 37.375H19.704C19.5033 37.1166 19.2782 36.8828 19.1116 36.5924C18.5662 35.6295 18.2629 34.5462 18.2285 33.4375ZM7.80001 10.4688V19.6562C7.80001 20.1784 8.00545 20.6792 8.37115 21.0484C8.73685 21.4176 9.23284 21.625 9.75001 21.625C10.2672 21.625 10.7632 21.4176 11.1289 21.0484C11.4946 20.6792 11.7 20.1784 11.7 19.6562V10.4688C11.7 9.9466 11.4946 9.44585 11.1289 9.07663C10.7632 8.70742 10.2672 8.5 9.75001 8.5C9.23284 8.5 8.73685 8.70742 8.37115 9.07663C8.00545 9.44585 7.80001 9.9466 7.80001 10.4688Z" fill="#C5C2C4"/>
</svg>
