<svg width="40" height="40" viewBox="0 0 40 40" fill="none" xmlns="http://www.w3.org/2000/svg">
<path d="M37.5 22.5H25C23.6195 22.5 22.5 23.6195 22.5 25V37.5C22.5 38.8805 23.6195 40 25 40H37.5C38.8805 40 40 38.8805 40 37.5V25C40 23.6195 38.8805 22.5 37.5 22.5ZM36.25 36.25H26.25V26.25H36.25V36.25ZM10 20C4.47734 20 0 24.4773 0 30C0 35.5227 4.47734 40 10 40C15.5227 40 20 35.5227 20 30C20 24.4773 15.5227 20 10 20ZM10 36.25C6.55391 36.25 3.75 33.4461 3.75 30C3.75 26.5539 6.55391 23.75 10 23.75C13.4461 23.75 16.25 26.5539 16.25 30C16.25 33.4461 13.4461 36.25 10 36.25ZM39.6078 15.7141L31.2555 1.42891C30.6992 0.476563 29.7242 0 28.75 0C27.7758 0 26.8008 0.476563 26.2445 1.42891L17.8922 15.7141C16.7781 17.6187 18.1703 20 20.3977 20H37.1023C39.3297 20 40.7219 17.6187 39.6078 15.7141ZM21.9227 16.25L28.75 4.57266L35.5773 16.25H21.9227Z" fill="#C5C2C4"/>
</svg>
