<svg width="45" height="47" viewBox="0 0 45 47" fill="none" xmlns="http://www.w3.org/2000/svg">
<path d="M13.8 21.159C13.3594 20.7275 12.6469 20.7275 12.2062 21.1498L10.0781 23.2154C9.6375 23.6469 9.6375 24.3446 10.0688 24.7761L18.5812 33.1763C19.0219 33.6078 19.7344 33.6078 20.175 33.1855L36.3562 17.4684C36.7969 17.0369 36.7969 16.3391 36.3656 15.9077L34.2562 13.8237C33.8156 13.3922 33.1031 13.3922 32.6625 13.8145L19.4062 26.6857L13.8 21.159ZM42.2344 7.68186L24.2344 0.337392C23.6861 0.114652 23.0983 0 22.5047 0C21.9111 0 21.3233 0.114652 20.775 0.337392L2.775 7.68186C1.09687 8.36122 0 9.96782 0 11.7489C0 29.9723 10.7344 42.5681 20.7656 46.6626C21.8719 47.1125 23.1187 47.1125 24.225 46.6626C32.2594 43.3851 45 32.0655 45 11.7489C45 9.96782 43.9031 8.36122 42.2344 7.68186ZM22.5 42.5956C13.3594 38.8683 4.5 27.2916 4.5 11.7489L22.5 4.40439L40.5 11.7489C40.5 27.7047 31.275 39.0152 22.5 42.5956Z" fill="#C5C2C4"/>
</svg>
