<svg width="52" height="40" viewBox="0 0 52 40" fill="none" xmlns="http://www.w3.org/2000/svg">
<path d="M37.5556 25.7143C37.5556 27.292 38.8492 28.5714 40.4444 28.5714C42.0397 28.5714 43.3333 27.292 43.3333 25.7143C43.3333 24.1366 42.0397 22.8571 40.4444 22.8571C38.8492 22.8571 37.5556 24.1366 37.5556 25.7143ZM20.2222 28.5714C20.2222 29.6179 20.5274 30.5848 21.0239 31.4286H30.977C31.4735 30.5848 31.7787 29.6179 31.7787 28.5714C31.7787 27.5295 31.4753 26.5661 30.9833 25.725L37.8219 17.0295C38.5585 16.0946 38.3861 14.7482 37.4436 14.0232C36.4903 13.2937 35.1361 13.4652 34.4022 14.3982L27.5627 23.0946C27.0626 22.9554 26.5453 22.8562 26.0009 22.8562C22.8087 22.8571 20.2222 25.4152 20.2222 28.5714ZM28.8889 11.4286C28.8889 9.85089 27.5952 8.57143 26 8.57143C24.4048 8.57143 23.1111 9.85089 23.1111 11.4286C23.1111 13.0063 24.4048 14.2857 26 14.2857C27.5952 14.2857 28.8889 13.0063 28.8889 11.4286ZM11.5556 22.8571C9.96035 22.8571 8.66667 24.1366 8.66667 25.7143C8.66667 27.292 9.96035 28.5714 11.5556 28.5714C13.1508 28.5714 14.4444 27.292 14.4444 25.7143C14.4444 24.1366 13.1508 22.8571 11.5556 22.8571ZM15.8889 18.5714C17.4841 18.5714 18.7778 17.292 18.7778 15.7143C18.7778 14.1366 17.4841 12.8571 15.8889 12.8571C14.2937 12.8571 13 14.1366 13 15.7143C13 17.292 14.2937 18.5714 15.8889 18.5714ZM0 25.7143C0 30.4286 1.28646 34.8446 3.52625 38.6429C4.03271 39.5018 4.99778 40 6.00347 40H45.9965C47.0022 40 47.9673 39.5018 48.4738 38.6429C50.7135 34.8446 52 30.4286 52 25.7143C52 11.5125 40.3596 0 26 0C11.6404 0 0 11.5125 0 25.7143ZM4.33333 25.7143C4.33333 13.8982 14.0526 4.28571 26 4.28571C37.9474 4.28571 47.6667 13.8982 47.6667 25.7143C47.6667 29.2071 46.8036 32.6455 45.1633 35.7143H6.83674C5.19639 32.6455 4.33333 29.2071 4.33333 25.7143Z" fill="#C5C2C4"/>
</svg>
