<svg width="38" height="44" viewBox="0 0 38 44" fill="none" xmlns="http://www.w3.org/2000/svg">
<path d="M19 24.75C24.9969 24.75 29.8571 19.8249 29.8571 13.75V0L24.4286 2.75L19 0L13.5714 2.75L8.14286 0V13.75C8.14286 19.8249 13.004 24.75 19 24.75ZM12.2143 11H25.7857V13.75C25.7857 17.5407 22.7415 20.625 19 20.625C15.2585 20.625 12.2143 17.5407 12.2143 13.75V11ZM26.6 26.125C25.6636 26.125 24.7526 26.3484 23.8687 26.6612C22.342 27.2009 20.7066 27.5 19 27.5C17.2942 27.5 15.658 27.2009 14.1321 26.6612C13.2483 26.3484 12.3364 26.125 11.4 26.125C5.1037 26.125 0 31.2959 0 37.675V39.875C0 42.1532 1.82281 44 4.07143 44H33.9286C36.1772 44 38 42.1532 38 39.875V37.675C38 31.2959 32.8963 26.125 26.6 26.125ZM33.9286 39.875H4.07143V37.675C4.07143 33.5809 7.35911 30.25 11.4 30.25C11.7546 30.25 12.2083 30.3497 12.7894 30.5551C14.7962 31.2649 16.8854 31.625 19 31.625C21.1146 31.625 23.2037 31.2649 25.2106 30.5551C25.7917 30.3497 26.2463 30.25 26.6 30.25C30.6409 30.25 33.9286 33.5809 33.9286 37.675V39.875Z" fill="#C5C2C4"/>
</svg>
