<svg xmlns="http://www.w3.org/2000/svg" viewBox="273 396 50 50"><path d="M312.6 431.7c-2.3-2.9-5.8-4.9-9.9-4.9 -1 0-2.4 0.9-5.4 0.9 -3 0-4.4-0.9-5.4-0.9 -4 0-7.6 1.9-9.9 4.9 -2.2-3.1-3.5-6.8-3.5-10.9 0-10.3 8.4-18.8 18.8-18.8s18.8 8.4 18.8 18.8C316.1 424.9 314.8 428.6 312.6 431.7M297.4 439.6c-4.7 0-8.9-1.7-12.2-4.5 1.4-2.2 3.8-3.6 6.5-3.7 2 0.6 3.8 0.9 5.7 0.9 1.9 0 3.7-0.3 5.7-0.9 2.7 0.1 5.1 1.5 6.5 3.7C306.3 437.9 302 439.6 297.4 439.6M297.4 397.6c-12.9 0-23.3 10.4-23.3 23.3 0 12.8 10.4 23.3 23.3 23.3s23.3-10.4 23.3-23.3C320.6 408 310.2 397.6 297.4 397.6M297.4 420.1c-2.5 0-4.5-2-4.5-4.5 0-2.5 2-4.5 4.5-4.5s4.5 2 4.5 4.5C301.9 418.1 299.9 420.1 297.4 420.1M297.4 406.6c-5 0-9 4-9 9 0 5 4 9 9 9s9-4 9-9C306.4 410.6 302.3 406.6 297.4 406.6"/></svg>