<svg xmlns="http://www.w3.org/2000/svg" viewBox="0 0 157 138"><path class="st0" d="M69.8 14.2l20.6 20.4H69.8V14.2zM89.6 82.4c-2.1 2-3.6 4.5-4.4 7.3l-4.1 13.7h-6.7c-1.2 0-2.2-0.6-2.8-1.7 -3.2-6.4-12.5-8.1-17.9-3.8L50 86.6c-0.9-2.6-3.4-4.4-6.2-4.4s-5.3 1.8-6.2 4.4l-4.9 14.7c-0.4 1.2-1.6 2.1-2.9 2.1h-3.4c-2.4 0-4.3 1.9-4.3 4.3s1.9 4.3 4.3 4.3h3.4c5 0 9.5-3.2 11.1-7.9l2.9-8.6 4.6 13.5c0.6 1.6 2.1 2.8 3.8 2.9 0.1 0 0.2 0 0.3 0 1.6 0 3.1-0.9 3.9-2.4l2.1-4.1c0.8-1.5 2.2-1.7 2.7-1.7 0.6 0 2 0.2 2.8 1.8 2 3.9 6 6.4 10.5 6.4h17.1v12.9H13.4V13.2h43.4v27.9c0 3.6 2.9 6.4 6.5 6.4h28.2v20.9l13-12.8v-20c0-3.4-1.4-6.7-3.8-9.1L77.9 4.1c-2.4-2.4-5.7-3.8-9.2-3.8H13.4c-7.2 0-13 5.8-13 12.9v111.6c0 7.1 5.8 12.9 13 12.9h78.1c7.2 0 13-5.8 13-12.9v-20.2L141 68.3 122.6 50 89.6 82.4zM154.6 45.2l-8.6-8.6c-2.7-2.7-7.1-2.7-9.8 0l-7.4 7.3 18.4 18.2 7.4-7.3C157.3 52.2 157.3 47.9 154.6 45.2"/></svg>