<svg xmlns="http://www.w3.org/2000/svg" viewBox="0 0 158.1 138"><path class="st0" d="M79.1 108.3c-26.9 0-51.6-15-64.9-39.3 13.3-24.3 38-39.3 64.9-39.3s51.6 15 64.9 39.3C130.6 93.3 106 108.3 79.1 108.3M156.7 65.1c-14.8-28.9-44.1-48.4-77.6-48.4S16.2 36.2 1.4 65.1c-1.3 2.5-1.3 5.5 0 8 14.8 28.9 44.1 48.4 77.6 48.4s62.8-19.5 77.6-48.4C157.9 70.5 157.9 67.6 156.7 65.1M79.1 38.5c-2.9 0-5.8 0.5-8.5 1.4 1.3 2.2 2 4.8 2 7.4 0 8.4-6.8 15.3-15.3 15.3 -2.6 0-5.1-0.7-7.4-2 -4.7 16.2 4.7 33.1 20.8 37.7 16.2 4.7 33.1-4.7 37.7-20.8 4.7-16.2-4.7-33.1-20.8-37.7C84.8 38.9 81.9 38.5 79.1 38.5"/></svg>