<svg xmlns="http://www.w3.org/2000/svg" viewBox="0 0 158.1 138"><path class="st0" d="M128 64.7H30.1v60.1H128V64.7zM52.4 51.8h53.4V38.9c0-14.2-12-25.8-26.7-25.8S52.4 24.7 52.4 38.9V51.8zM141.3 64.7v60.1c0 7.1-6 12.9-13.3 12.9H30.1c-7.4 0-13.3-5.8-13.3-12.9V64.7c0-7.1 6-12.9 13.3-12.9H39V38.9C39 17.6 57 0.2 79.2 0.3c22.1 0.1 39.9 17.7 39.9 39v12.5h8.9C135.3 51.8 141.3 57.6 141.3 64.7M79.1 110.9c-4.3 0-7.8-3.4-7.8-7.5V86.2c0-4.2 3.5-7.5 7.8-7.5 4.3 0 7.8 3.4 7.8 7.5v17.2C86.8 107.5 83.4 110.9 79.1 110.9"/></svg>