<svg xmlns="http://www.w3.org/2000/svg" viewBox="0 0 96 80"><path d="M78.6 26.4H57.2l5 5h14.6v30.3H19.7V31.5h18l-1.1-1.1L34.2 28l-1.6-1.6H18c-1.9 0-3.4 1.5-3.4 3.4v33.6c0 1.9 1.5 3.4 3.4 3.4h60.5c1.9 0 3.4-1.5 3.4-3.4V29.8C81.9 27.9 80.4 26.4 78.6 26.4M39.9 51.6c0 0.9 0.8 1.7 1.7 1.7h18l-5-5H41.6c-0.9 0-1.7 0.8-1.7 1.7V51.6zM41.6 44.9h9.6l-5-5h-4.5c-0.9 0-1.7 0.8-1.7 1.7v1.7C39.9 44.2 40.7 44.9 41.6 44.9M29 57.5h1.7c0.5 0 0.8-0.4 0.8-0.8V55c2.5-0.1 4.5-2.2 4.5-4.7 0-2.1-1.4-4-3.3-4.6l-4.7-1.4c-0.5-0.2-0.9-0.7-0.9-1.3 0-0.8 0.6-1.4 1.2-1.4h3c0.5 0 0.9 0.1 1.3 0.4 0.1 0.1 0.3 0.1 0.5 0.1 0.2 0 0.4-0.1 0.6-0.2l1.2-1.2c0.3-0.3 0.4-0.8 0-1.2 0 0-0.1-0.1-0.1-0.1 -1-0.7-2.1-1.1-3.3-1.2v-1.7c0-0.5-0.4-0.8-0.8-0.8H29c-0.5 0-0.8 0.4-0.8 0.8v1.7c-2.5 0.1-4.5 2.2-4.5 4.7 0 2.1 1.4 4 3.3 4.6l4.7 1.4c0.5 0.2 0.9 0.7 0.9 1.3 0 0.8-0.6 1.4-1.2 1.4h-3c-0.5 0-0.9-0.1-1.3-0.4 -0.1-0.1-0.3-0.1-0.5-0.1 -0.2 0-0.4 0.1-0.6 0.2l-1.2 1.2c-0.3 0.3-0.4 0.9 0 1.2 0 0 0.1 0.1 0.1 0.1 1 0.7 2.1 1.1 3.3 1.2v1.7C28.1 57.1 28.5 57.5 29 57.5M36.6 25.6l7.5-7.5 -4.4-4.4c-1-1-2.6-1-3.6 0l-4 4c-1 1-1 2.6 0 3.6L36.6 25.6zM65.7 53.3h4.5c0.9 0 1.7-0.8 1.7-1.7v-4.5c0-0.9-0.4-1.7-1-2.4L46.5 20.5 39 28l24.3 24.3C64 53 64.8 53.3 65.7 53.3"/></svg>