<svg xmlns="http://www.w3.org/2000/svg" viewBox="261 392 72 60"><path d="M317.1 425.6c-2 0.2-3.5 1.7-4 3.6 -0.8-0.1-1.6-0.1-2.4-0.1 -4.9 0-9.7 1.2-14.3 2.4 -4.4 1.1-8.5 2.2-12.6 2.2 -0.6 0-1.2 0-1.7-0.1 -0.1-2.5-2.1-4.5-4.6-4.5v-12.9c2.3 0 4.1-1.6 4.6-3.8 0.6 0 1.2 0.1 1.8 0.1 4.9 0 9.7-1.2 14.3-2.4 4.4-1.1 8.5-2.2 12.6-2.2 0.8 0 1.5 0.1 2.3 0.1 0.1 2.3 1.8 4.2 4.1 4.5V425.6zM319.3 406.2c-2.8-1.2-5.6-1.6-8.5-1.6 -9 0-17.9 4.5-26.9 4.5 -2.2 0-4.5-0.3-6.7-1 -0.3-0.1-0.5-0.1-0.8-0.1 -1.3 0-2.3 1-2.3 2.3v23.1c0 0.9 0.5 1.8 1.4 2.1 2.8 1.2 5.6 1.6 8.5 1.6 9 0 17.9-4.5 26.9-4.5 2.2 0 4.5 0.3 6.7 1 0.3 0.1 0.5 0.1 0.8 0.1 1.3 0 2.3-1 2.3-2.3v-23.1C320.6 407.4 320.1 406.5 319.3 406.2M297.4 413.9c-3.2 0-5.8 3.1-5.8 7 0 3.9 2.6 7 5.8 7 3.2 0 5.8-3.1 5.8-7C303.2 417 300.6 413.9 297.4 413.9"/></svg>
