<svg width="213" height="50" viewBox="0 0 213 50" fill="none" xmlns="http://www.w3.org/2000/svg">
<path d="M52.2824 14.2268H64.6716V18.3093H56.8664V25.9794H63.061V30.0619H56.8664V38.9691H64.6716V43.0516H52.2824V14.2268Z" fill="black"/>
<path d="M75.6979 43.1753C75.574 42.9278 75.4501 42.0618 75.3262 40.701C74.5828 42.5567 72.9723 43.5464 70.8661 43.5464C68.0166 43.5464 66.2821 41.567 66.2821 38.2268C66.2821 34.8866 67.6449 33.0309 71.3617 31.1753C74.3351 29.6907 74.8306 29.3196 74.8306 28.2062V27.835C74.8306 26.1031 74.3351 25.4845 73.0961 25.4845C71.7333 25.4845 71.1139 26.3505 71.1139 27.9588V28.701H66.9016V28.2062C66.9016 24.1237 69.0077 21.7732 73.0961 21.7732C77.4324 21.7732 79.1668 24.1237 79.1668 28.701V37.1134C79.1668 40.0825 79.4146 41.9381 79.6624 43.1753H75.6979ZM74.8306 36.2474V32.6598C74.459 33.0309 73.8395 33.5258 72.7245 34.268C71.3617 35.134 70.7422 36.1237 70.7422 37.4845C70.7422 38.9691 71.3617 39.7113 72.6006 39.7113C73.9634 39.835 74.8306 38.5979 74.8306 36.2474Z" fill="black"/>
<path d="M81.7686 37.1134V36.4948H85.9809V37.2371C85.9809 39.0928 86.8481 39.835 87.9631 39.835C89.0782 39.835 89.8215 39.2165 89.8215 37.6082C89.8215 36 88.4587 35.2577 86.7242 34.268C84.4942 33.0309 81.8924 31.5464 81.8924 27.5876C81.8924 24.1237 83.8747 21.7732 87.8393 21.7732C91.4321 21.7732 93.7861 24.1237 93.7861 27.9588V28.4536H89.6976V27.835C89.6976 26.1031 89.0782 25.6082 87.9631 25.6082C87.0959 25.6082 86.2287 26.1031 86.2287 27.5876C86.2287 29.3196 87.7154 30.1856 89.4498 31.1753C91.6799 32.4124 94.1577 33.8969 94.1577 37.6082C94.1577 41.3196 92.1755 43.6701 88.087 43.6701C83.9986 43.5464 81.7686 41.1959 81.7686 37.1134Z" fill="black"/>
<path d="M96.5117 49.4845V45.7732C97.0073 45.8969 97.5028 46.0206 98.1223 46.0206C99.609 46.0206 100.105 45.6495 100.476 44.2886L100.6 44.0412L95.3967 22.0206H99.8568L102.706 36.4948L105.184 22.0206H109.273L104.565 44.9072C103.821 48.4948 102.211 49.8557 98.7417 49.8557C98.1223 49.9794 97.255 49.8557 96.5117 49.4845Z" fill="black"/>
<path d="M120.547 37.4845H115.219L114.476 43.1752H110.264L114.972 14.3505H121.166L125.874 43.1752H121.29L120.547 37.4845ZM119.927 33.5258L117.821 18.9278L115.839 33.5258H119.927Z" fill="#DFC015"/>
<path d="M133.555 19.5464V22.1443H136.777V25.8557H133.555V43.1753H129.219V25.8557H126.865V22.1443H129.219V19.0515C129.219 15.5876 130.954 13.9794 134.423 13.9794C135.29 13.9794 136.033 14.1031 136.777 14.3505V18.0618C136.281 17.9381 135.785 17.8144 135.29 17.8144C134.051 17.6907 133.555 18.1856 133.555 19.5464Z" fill="#DFC015"/>
<path d="M145.325 13.8557C146.192 13.8557 146.936 13.9794 147.679 14.2268V17.9381C147.183 17.8144 146.688 17.6907 146.192 17.6907C144.953 17.6907 144.458 18.1856 144.458 19.5464V22.1443H147.679V25.8557H144.458V43.1752H140.122V25.8557H137.768V22.1443H140.122V19.0515C140.122 15.4639 141.856 13.8557 145.325 13.8557ZM154.245 14.7216V19.5464H149.909V14.7216H154.245ZM149.909 22.0206H154.245V43.0515H149.909V22.0206Z" fill="#DFC015"/>
<path d="M157.714 14.2268H162.051V43.0516H157.714V14.2268Z" fill="#DFC015"/>
<path d="M165.396 14.7216H169.732V19.5464H165.396V14.7216ZM165.396 22.0206H169.732V43.0515H165.396V22.0206Z" fill="#DFC015"/>
<path d="M181.749 43.1753C181.625 42.9278 181.501 42.0618 181.378 40.701C180.634 42.5567 179.024 43.5464 176.917 43.5464C174.068 43.5464 172.333 41.567 172.333 38.2268C172.333 34.8866 173.696 33.0309 177.413 31.1753C180.386 29.6907 180.882 29.3196 180.882 28.2062V27.835C180.882 26.1031 180.386 25.4845 179.147 25.4845C177.785 25.4845 177.165 26.3505 177.165 27.9588V28.701H173.077V28.2062C173.077 24.1237 175.183 21.7732 179.271 21.7732C183.608 21.7732 185.342 24.1237 185.342 28.701V37.1134C185.342 40.0825 185.59 41.9381 185.838 43.1753H181.749ZM180.882 36.2474V32.6598C180.51 33.0309 179.891 33.5258 178.776 34.268C177.413 35.134 176.794 36.1237 176.794 37.4845C176.794 38.9691 177.413 39.7113 178.652 39.7113C180.015 39.835 180.882 38.5979 180.882 36.2474Z" fill="#DFC015"/>
<path d="M194.138 25.732V37.732C194.138 39.0928 194.634 39.5876 195.873 39.5876C196.369 39.5876 196.864 39.4639 197.36 39.3402V43.0515C196.616 43.299 195.873 43.4227 195.006 43.4227C191.537 43.4227 189.802 41.6907 189.802 38.3505V25.732H187.448V22.0206H190.05L190.422 16.3299H194.138V22.0206H197.36V25.732H194.138Z" fill="#DFC015"/>
<path d="M212.35 28.5773V33.6495H203.802V37.1134C203.802 38.9691 204.545 39.7113 206.032 39.7113C207.395 39.7113 208.262 38.9691 208.262 37.1134V36.3711H212.474V36.7423C212.474 41.0722 210.244 43.5464 206.032 43.5464C201.82 43.5464 199.59 41.0722 199.59 36.7423V28.5773C199.59 24.2474 201.82 21.7732 206.032 21.7732C210.244 21.7732 212.35 24.1237 212.35 28.5773ZM208.014 30.0618V28.0825C208.014 26.2268 207.271 25.4845 205.908 25.4845C204.545 25.4845 203.802 26.2268 203.802 28.0825V30.0618H208.014Z" fill="#DFC015"/>
<path d="M27.0084 25.8557C34.9375 28.701 40.017 35.0103 38.2825 39.835C36.548 44.6598 28.8668 45.1546 20.9377 42.1855C13.0086 39.2165 7.68127 34.3917 9.41576 29.4433C11.1502 24.4948 19.0793 23.0103 27.0084 25.8557Z" fill="#F5D10E"/>
<path d="M43.9816 13.732C42.8665 10.8866 38.6542 10.6392 36.0525 11.134C32.4596 11.8763 29.3623 14.1031 26.7606 16.701C26.8845 16.2062 27.0084 15.8351 27.0084 15.3402C27.1323 14.3505 27.2562 13.3608 27.2562 12.4949C27.3801 9.15464 26.6367 2.1031 22.3005 1.48454C19.3271 0.989694 16.9731 4.57732 16.1059 7.05155C14.867 10.5155 15.3626 14.4742 16.3537 17.9381C17.2209 21.4021 18.7076 24.6186 21.8049 26.7217L22.0527 27.0928C22.1766 26.8454 22.6722 27.5876 22.7961 27.3402C26.7606 27.7113 30.4774 26.3505 34.1941 24.9897C35.0613 24.6186 36.0525 24.2474 36.9197 23.8763C39.8931 21.8969 45.5921 17.8144 43.9816 13.732Z" fill="white"/>
<path d="M42.8668 45.6502C41.3801 45.0317 39.8934 44.4131 38.4067 43.7946C38.7784 40.9492 38.1589 37.8564 36.3005 35.6296C35.6811 34.8874 34.8138 34.1451 33.8227 33.8977C32.9555 33.6502 32.0882 33.6502 31.221 33.774C29.9821 31.5472 27.8759 29.4441 25.522 28.3307C28.4954 28.0832 31.4688 27.0935 34.5661 25.9801C35.5572 25.609 36.4244 25.2379 37.4156 24.743C38.4067 24.2482 47.4508 19.4234 45.0969 13.3616C43.734 9.40283 38.5306 9.40283 35.9289 9.89767C33.5749 10.3925 31.0971 11.5059 28.6193 13.4853C28.6193 13.1142 28.6193 12.8667 28.7431 12.4956C28.7431 11.3822 29.1148 1.11417 22.6725 0.124478C18.584 -0.494079 15.9823 3.95953 15.1151 6.43376C14 9.65025 14.1239 13.4853 15.2389 18.0626C15.6106 19.5472 16.2301 21.2791 17.0973 22.8874C16.7256 22.7637 16.2301 22.7637 15.7345 22.7637C14.8673 22.7637 14.1239 23.0111 13.3806 23.2585C12.885 21.4028 11.1505 20.042 9.16825 19.4234C7.55766 18.9286 5.82317 19.176 4.46036 20.042C3.22145 21.0317 2.4781 22.3925 1.73475 23.8771V24.0008C1.73475 24.1245 1.73475 24.1245 1.61085 24.2482C1.98253 23.0111 2.4781 22.0214 3.09755 21.0317C3.59312 20.2894 2.3542 19.5472 1.85864 20.2894C0.124153 23.1348 -0.74309 26.5987 0.867503 29.6915C1.61085 31.176 2.97366 32.4131 4.58426 33.0317C6.07096 33.5265 7.80544 33.2791 9.29214 32.5368C11.77 31.2997 13.1328 28.8255 13.6284 26.2276C14.4956 25.7327 15.3628 25.4853 16.354 25.4853C16.7256 25.4853 16.8495 25.4853 17.2212 25.609C17.3451 25.609 17.469 25.7327 17.5929 25.7327C18.584 26.3513 19.2035 26.8461 19.8229 27.8358C16.7256 28.8255 14.1239 31.4234 12.6372 34.2688C11.2744 37.1142 10.655 41.8152 14 43.6709C16.8495 45.1554 19.4513 41.9389 20.6902 39.8358C22.4247 36.9905 23.4158 33.5265 23.0441 30.1863C24.5308 30.4338 26.1414 31.5472 27.2564 32.6606C27.8759 33.1554 28.3715 33.774 28.7431 34.3925C27.1326 35.0111 25.6459 36.0008 24.6547 37.3616C23.2919 39.2173 22.6725 41.8152 22.9202 44.1657C23.2919 46.3925 24.9025 48.1245 27.2564 47.5059C29.6104 46.8874 31.3449 44.2894 32.2121 42.1863C32.9555 40.3307 32.9555 38.1039 32.336 36.2482C32.7077 36.2482 33.0794 36.3719 33.451 36.4956L33.6988 36.6193C33.8227 36.743 34.0705 36.8667 34.1944 36.9905C34.5661 37.2379 34.8138 37.609 35.0616 37.9801C35.5572 38.7224 35.805 39.341 36.0528 40.207C36.4244 41.4441 36.4244 42.8049 36.3005 44.042V44.1657V44.2894V44.4131C36.1767 45.0317 36.5483 45.6502 37.1678 45.8977C38.9023 46.6399 40.6368 47.2585 42.3712 47.8771C43.2385 48.1245 44.1057 46.1451 42.8668 45.6502ZM17.469 25.609C17.5929 25.7327 17.5929 25.7327 17.469 25.609V25.609ZM19.4513 36.0008C19.0796 37.1142 18.3362 38.475 17.5929 39.5884C17.469 39.7121 17.469 39.8358 17.2212 40.0832C16.9734 40.3307 16.8495 40.4544 16.6018 40.7018C16.4779 40.8255 16.4779 40.8255 16.354 40.9492C16.354 40.9492 16.2301 40.9492 16.2301 41.0729C16.1062 41.0729 16.1062 41.1966 15.9823 41.1966C15.9823 41.1966 15.8584 41.1966 15.7345 41.3204L15.3628 41.4441H15.2389L15.1151 41.3204C15.1151 41.3204 14.8673 41.1966 14.8673 41.0729C14.8673 41.0729 14.4956 40.7018 14.6195 40.8255C14.2478 40.3307 14.1239 40.0832 14 39.4647C14 39.2173 14 39.4647 14 39.2173C14 39.0935 14 38.9698 14 38.7224C14 38.5987 14 38.3513 14 38.2276C14 38.2276 14 37.7327 14 37.8564C14.3717 35.1348 16.354 32.4131 18.7079 30.9286C19.2035 30.5575 19.8229 30.31 20.3185 30.1863C20.3185 30.6812 20.3185 31.176 20.3185 31.7946C20.1946 33.1554 19.9468 34.6399 19.4513 36.0008ZM23.0441 25.7327L22.9202 25.609L22.6725 25.3616C20.3185 23.8771 18.8318 21.4028 17.8407 17.3204C16.7256 13.2379 16.7256 9.89767 17.5929 7.17602C18.2123 5.07293 20.1946 2.22757 22.3008 2.47499C25.522 2.96984 26.3892 8.53685 26.2653 12.2482C26.2653 13.1142 26.1414 14.1039 26.0175 14.9698C25.8936 15.4647 25.8936 15.8358 25.7697 16.3307L24.7786 20.5368L27.752 17.5678C30.7254 14.5987 33.5749 12.8667 36.4244 12.3719C38.6545 12.0008 42.1235 12.2482 42.8668 14.2276C43.9818 17.1966 39.6456 20.7843 36.3005 22.5162C35.4333 22.8874 34.6899 23.2585 33.8227 23.6296C29.9821 24.8667 26.5131 26.1039 23.0441 25.7327ZM29.1148 42.31C28.6193 43.0523 28.1237 43.7946 27.3803 44.4131C27.1326 44.6606 26.7609 44.7843 26.5131 44.908C26.2653 44.908 26.1414 44.908 26.0175 44.908C26.0175 44.908 25.7697 44.7843 25.8936 44.7843C25.8936 44.7843 25.7697 44.5368 25.6459 44.4131C25.6459 44.2894 25.3981 43.7946 25.3981 43.5472C25.2742 42.6812 25.3981 41.8152 25.6459 40.9492C26.1414 39.0935 27.2564 37.7327 28.9909 36.8667C29.2387 36.743 29.4865 36.6193 29.7343 36.4956C30.3537 38.3513 30.2298 40.4544 29.1148 42.31Z" fill="black"/>
</svg>
