<svg xmlns="http://www.w3.org/2000/svg" viewBox="272 398 50 50"><path d="M311.6 418.4L311.6 418.4l0 19.4h-9v-11.6c0-1.4-1.2-2.6-2.6-2.6h-5.2c-1.4 0-2.6 1.2-2.6 2.6v11.6h-9.1V416l0 0v-0.3l14.2-11.7 14.2 11.7V418.4zM320.2 417.7l-19.9-16.4c-1.7-1.4-4.1-1.4-5.8 0l-19.9 16.4c-0.5 0.5-0.6 1.3-0.2 1.8l0.8 1c0.5 0.5 1.3 0.6 1.8 0.2l2.2-1.8v4.7h0v16.8c0 0.7 0.6 1.3 1.3 1.3h33.6c0.7 0 1.3-0.6 1.3-1.3v-21.5l2.2 1.8c0.5 0.5 1.4 0.4 1.8-0.2l0.8-1C320.8 419 320.7 418.2 320.2 417.7 320.2 417.7 320.2 417.7 320.2 417.7z"/></svg>
