<svg xmlns="http://www.w3.org/2000/svg" viewBox="23 16 50 50"><path d="M66.8 20.2c-4.7-5-12.3-5-17 0 -7.1 7.5-6.8 7.1-7.3 7.8 -3.8 5-3.5 12.4 0.8 17 0.9 1 2 1.8 3.1 2.4 0.4 0.2 0.9 0.1 1.2-0.2l0.4-0.4c0.7-0.8 1.2-1.8 1.3-2.8 0.1-0.5-0.2-0.9-0.6-1.1 -0.7-0.4-1.4-0.9-2-1.5 -2.8-3-2.8-7.8 0-10.8l6.5-6.8c2.8-3 7.4-3 10.2 0 2.8 3 2.8 7.8 0 10.8l-3.9 4.2c-0.3 0.3-0.4 0.7-0.3 1 0.3 1.1 0.4 2.3 0.4 3.4 0 1 1.1 1.4 1.8 0.7 1-1 2.6-2.8 5.4-5.8C71.4 33.2 71.4 25.2 66.8 20.2M53.3 34.5c4.4 4.6 4.7 12 0.8 17 -0.5 0.7-0.2 0.4-7.3 7.8 -4.7 5-12.3 5-17 0 -4.7-5-4.7-13 0-18 2.8-3 4.4-4.7 5.4-5.8 0.6-0.7 1.7-0.2 1.8 0.7 0 1.2 0.2 2.3 0.4 3.4 0.1 0.4 0 0.8-0.3 1l-3.9 4.2c-2.8 3-2.8 7.8 0 10.8 2.8 3 7.4 3 10.2 0l6.5-6.8c2.8-3 2.8-7.8 0-10.8 -0.6-0.6-1.2-1.1-2-1.5 -0.4-0.2-0.6-0.7-0.6-1.1 0.1-1 0.5-2 1.3-2.8l0.4-0.4c0.3-0.3 0.8-0.4 1.2-0.2C51.3 32.7 52.4 33.5 53.3 34.5"/></svg>
