<svg xmlns="http://www.w3.org/2000/svg" viewBox="0 0 88 73"><path class="st0" d="M44.9 48.8c0-8.9 7.2-16.1 16.1-16.1 0.2 0 0.3 0 0.4 0 0.6-4.7-0.1-8.6-2.6-11.5 -0.9-1-1.9-1.8-3.2-2.5 0.9-5.6 0-9.4-3-12.9 -3.3-3.8-9.4-5.4-17.1-5.4H13c-1.6 0-2.9 1.1-3.2 2.7L0.6 62.3c-0.2 1.2 0.7 2.2 1.9 2.2h13.8l-1 6c-0.2 1 0.6 1.9 1.7 1.9h11.6c1.4 0 2.6-1 2.8-2.4l0.1-0.6 2.2-13.9 0.1-0.8c0.2-1.4 1.4-2.4 2.8-2.4h1.7c2.4 0 4.7-0.2 6.8-0.7C45 50.8 44.9 49.8 44.9 48.8z"/><path class="st1" d="M55.5 18.8c0.9-5.6 0-9.4-3-12.9 -3.3-3.8-9.4-5.4-17.1-5.4H13c-1.6 0-2.9 1.1-3.2 2.7L0.6 62.3c-0.2 1.2 0.7 2.2 1.9 2.2h13.8l3.5-22 -0.1 0.7c0.2-1.6 1.6-2.7 3.2-2.7h6.6c12.9 0 23-5.2 25.9-20.4C55.4 19.7 55.5 19.2 55.5 18.8"/><path class="st2" d="M23.5 18.9c0.1-0.9 0.7-1.7 1.6-2.1 0.4-0.2 0.8-0.3 1.2-0.3h17.5c2.1 0 4 0.1 5.8 0.4 0.5 0.1 1 0.2 1.5 0.3s0.9 0.2 1.4 0.4c0.2 0.1 0.4 0.1 0.7 0.2 0.9 0.3 1.7 0.6 2.4 1 0.9-5.6 0-9.4-3-12.9 -3.3-3.8-9.4-5.4-17.1-5.4H13c-1.6 0-2.9 1.1-3.2 2.7L0.6 62.3c-0.2 1.2 0.7 2.2 1.9 2.2h13.8l3.5-22L23.5 18.9z"/><path class="st2" d="M55.3 53.9c0-0.9 0.5-1.5 1.5-1.5h1.9v-5c0-0.6 0.1-1.3 0.1-1.3h0c0 0-0.2 0.3-0.4 0.5 -0.6 0.5-1.3 0.6-2-0.1l-0.7-0.8C55 45 55 44.2 55.7 43.6l2.7-2.5c0.6-0.5 1-0.7 1.8-0.7h1.5c1 0 1.5 0.5 1.5 1.5v10.6h1.9c1 0 1.5 0.5 1.5 1.5V55c0 0.9-0.5 1.5-1.5 1.5h-8.4c-1 0-1.5-0.5-1.5-1.5V53.9L55.3 53.9z"/><path class="st2" d="M72 61.9c-0.3-0.4-0.4-2-0.4-4.1 -2.6 3.1-6.4 5-10.7 5 -7.7 0-14-6.3-14-14s6.3-14 14-14c6.1 0 11.3 3.9 13.2 9.4 0.3 0 0.5 0.1 0.7 0.2 0.3 0.1 2.3 2.2 4.2 4.3 -0.1-9.9-8.2-17.9-18.1-17.9 -10 0-18.1 8.1-18.1 18.1s8.1 18.1 18.1 18.1c4.5 0 8.6-1.6 11.7-4.4C72.4 62.4 72.2 62.2 72 61.9z"/><path class="st2" d="M86.6 54.6L75.8 44c-1.7-1.8-4.8-0.5-4.8 2v15.6c0 2.5 3 3.8 4.8 2l1.1-1 0.8 1.8 0 0 0 0c0.6 1.4 2.2 2.1 3.7 1.5l1.9-0.8 0 0 0 0c0.7-0.3 1.2-0.9 1.5-1.6 0.3-0.7 0.3-1.5 0-2.1l-0.8-1.9h0.7C87.1 59.5 88.4 56.4 86.6 54.6L86.6 54.6zM84.6 57.3h-4l2.1 4.9c0.1 0.3 0 0.7-0.4 0.9l-1.9 0.8c-0.3 0.1-0.7 0-0.9-0.4l-2-4.7 -3.3 3.2c-0.4 0.4-1.2 0.1-1.2-0.5V46c0-0.6 0.8-0.9 1.2-0.5l10.8 10.6C85.6 56.6 85.2 57.3 84.6 57.3z"/></svg>