<svg xmlns="http://www.w3.org/2000/svg" viewBox="0 0 88 73"><path class="st0" d="M54.9 32.9h14.2c0.6-4.8-0.1-8.8-2.6-11.7 -0.9-1-1.9-1.8-3.2-2.5 0.9-5.6 0-9.4-3-12.9C57 2.1 51 0.5 43.3 0.5H20.9c-1.6 0-2.9 1.1-3.2 2.7L8.4 62.3c-0.2 1.2 0.7 2.2 1.9 2.2h13.8l-1 6c-0.2 1 0.6 1.9 1.7 1.9h11.6c1.4 0 2.6-1 2.8-2.4l0.1-0.6 2.2-13.9 0.1-0.8c0.2-1.4 1.4-2.4 2.8-2.4h1.7c3.1 0 6.1-0.4 8.8-1.2V32.9z"/><path class="st1" d="M63.4 18.8c0.9-5.6 0-9.4-3-12.9C57 2.1 51 0.5 43.3 0.5H20.9c-1.6 0-2.9 1.1-3.2 2.7L8.4 62.3c-0.2 1.2 0.7 2.2 1.9 2.2h13.8l3.5-22 -0.1 0.7c0.2-1.6 1.6-2.7 3.2-2.7h6.6c12.9 0 23-5.2 25.9-20.4C63.2 19.7 63.3 19.2 63.4 18.8"/><path class="st2" d="M31.3 18.9c0.1-0.9 0.7-1.7 1.6-2.1 0.4-0.2 0.8-0.3 1.2-0.3h17.5c2.1 0 4 0.1 5.8 0.4 0.5 0.1 1 0.2 1.5 0.3 0.5 0.1 0.9 0.2 1.4 0.4 0.2 0.1 0.4 0.1 0.7 0.2 0.9 0.3 1.7 0.6 2.4 1 0.9-5.6 0-9.4-3-12.9C57 2.1 51 0.5 43.3 0.5H20.9c-1.6 0-2.9 1.1-3.2 2.7L8.4 62.3c-0.2 1.2 0.7 2.2 1.9 2.2h13.8l3.5-22L31.3 18.9z"/><path class="st2" d="M67.8 47.4c0-0.5-0.4-0.8-0.8-0.8h-1.7c-0.5 0-0.8 0.4-0.8 0.8v5.9h-3.5c-0.8 0-1.1 0.9-0.6 1.4l5.1 5.1c0.4 0.3 0.9 0.3 1.3 0l5.1-5.1c0.5-0.5 0.2-1.4-0.6-1.4h-3.5V47.4zM78.6 37.7l-5.9-5.9c-0.6-0.6-1.5-1-2.4-1H55.9c-1.9 0-3.4 1.5-3.4 3.4v29.4c0 1.9 1.5 3.4 3.4 3.4h20.3c1.9 0 3.4-1.5 3.4-3.4V40.1C79.6 39.2 79.3 38.3 78.6 37.7zM70.6 34.4l5.4 5.4h-5.4V34.4L70.6 34.4zM76.2 63.5H55.9V34.2h11.3v7.3c0 0.9 0.8 1.7 1.7 1.7h7.3V63.5z"/></svg>