<svg xmlns="http://www.w3.org/2000/svg" viewBox="0 0 88 73"><path class="st0" d="M48 42.8l10.7-10.2 7.1 0.4c0.6-4.8-0.1-8.8-2.6-11.7 -0.9-1-1.9-1.8-3.2-2.5 0.9-5.6 0-9.4-3-12.9 -3.3-3.8-9.4-5.4-17.1-5.4H17.5c-1.6 0-2.9 1.1-3.2 2.7L5 62.3c-0.2 1.2 0.7 2.2 1.9 2.2h13.8l-1 6c-0.2 1 0.6 1.9 1.7 1.9h11.6c1.4 0 2.6-1 2.8-2.4l0.1-0.6 2.2-13.9 0.1-0.8c0.2-1.4 1.4-2.4 2.8-2.4h1.7c2.1 0 4.1-0.2 6-0.5L48 42.8z"/><path class="st1" d="M60 18.8c0.9-5.6 0-9.4-3-12.9 -3.3-3.8-9.4-5.4-17.1-5.4H17.5c-1.6 0-2.9 1.1-3.2 2.7L5 62.3c-0.2 1.2 0.7 2.2 1.9 2.2h13.8l3.5-22 -0.1 0.7c0.2-1.6 1.6-2.7 3.2-2.7h6.6c12.9 0 23-5.2 25.9-20.4C59.9 19.7 59.9 19.2 60 18.8"/><path class="st2" d="M28 18.9c0.1-0.9 0.7-1.7 1.6-2.1 0.4-0.2 0.8-0.3 1.2-0.3h17.5c2.1 0 4 0.1 5.8 0.4 0.5 0.1 1 0.2 1.5 0.3 0.5 0.1 0.9 0.2 1.4 0.4 0.2 0.1 0.4 0.1 0.7 0.2 0.9 0.3 1.7 0.6 2.4 1 0.9-5.6 0-9.4-3-12.9 -3.3-3.8-9.4-5.4-17.1-5.4H17.5c-1.6 0-2.9 1.1-3.2 2.7L5 62.3c-0.2 1.2 0.7 2.2 1.9 2.2h13.8l3.5-22L28 18.9z"/><path class="st2" d="M82 41l-9.7-9.7c-0.6-0.6-1.5-1-2.4-1H59.8c-0.9 0-1.8 0.4-2.4 1L47.7 41c-0.6 0.6-1 1.5-1 2.4v10.1c0 0.9 0.4 1.8 1 2.4l9.7 9.7c0.6 0.6 1.5 1 2.4 1h10.1c0.9 0 1.8-0.4 2.4-1l9.7-9.7c0.6-0.6 1-1.5 1-2.4V43.4C83 42.5 82.6 41.6 82 41L82 41zM79.6 53.5l-9.7 9.7H59.8l-9.7-9.7V43.4l9.7-9.7h10.1l9.7 9.7V53.5zM72.1 54.1l-1.6 1.6c-0.3 0.3-0.9 0.3-1.2 0l-4.4-4.4 -4.4 4.4c-0.3 0.3-0.9 0.3-1.2 0l-1.6-1.6c-0.3-0.3-0.3-0.9 0-1.2l4.4-4.4 -4.4-4.4c-0.3-0.3-0.3-0.9 0-1.2l1.6-1.6c0.3-0.3 0.9-0.3 1.2 0l4.4 4.4 4.4-4.4c0.3-0.3 0.9-0.3 1.2 0l1.6 1.6c0.3 0.3 0.3 0.9 0 1.2l-4.4 4.4 4.4 4.4C72.4 53.2 72.4 53.7 72.1 54.1L72.1 54.1z"/></svg>