<svg xmlns="http://www.w3.org/2000/svg" viewBox="0 0 96 80"><path d="M51.4 45.4l-5-1.5c-0.6-0.2-1-0.7-1-1.4 0-0.8 0.6-1.5 1.3-1.5h3.2c0.5 0 1 0.1 1.4 0.4 0.3 0.2 0.8 0.2 1.1-0.1l1.3-1.3c0.4-0.3 0.4-0.9 0-1.2 0 0-0.1-0.1-0.1-0.1 -1-0.8-2.2-1.2-3.5-1.3v-1.8c0-0.5-0.4-0.9-0.9-0.9h-1.8c-0.5 0-0.9 0.4-0.9 0.9v1.8c-2.7 0.1-4.8 2.3-4.8 5 0 2.2 1.5 4.2 3.5 4.8l5 1.5c0.6 0.2 1 0.7 1 1.4 0 0.8-0.6 1.5-1.3 1.5h-3.2c-0.5 0-1-0.1-1.4-0.4 -0.3-0.2-0.8-0.2-1.1 0.1L43 52.6c-0.4 0.3-0.4 0.9 0 1.2 0 0 0.1 0.1 0.1 0.1 1 0.8 2.2 1.2 3.5 1.3V57c0 0.5 0.4 0.9 0.9 0.9h1.8c0.5 0 0.9-0.4 0.9-0.9v-1.8c2.6-0.1 4.8-2.3 4.8-5C55 48 53.5 46 51.4 45.4M69.8 55.8c0 3-2.8 5.4-6.4 5.4H33.3c-3.5 0-6.4-2.4-6.4-5.4 -0.1-8.3 3.4-18.1 17.6-26.8h7.6C66.3 37.7 69.8 47.5 69.8 55.8M54.4 18.3l-3.9 5.8h-4.1l-3.9-5.8H54.4zM55.6 25.3l5.7-8.4c0.6-1.2 0.1-2.7-1.1-3.3 -0.3-0.2-0.7-0.3-1.1-0.3H37.6c-1.4 0-2.5 1.1-2.5 2.5 0 0.4 0.1 0.8 0.3 1.1l5.7 8.4C21 37.6 22 53.7 22 55.8c0 5.7 5.1 10.3 11.3 10.3h30.1c6.2 0 11.3-4.6 11.3-10.3C74.7 53.8 75.6 37.6 55.6 25.3"/></svg>