<svg xmlns="http://www.w3.org/2000/svg" viewBox="0 0 88 73"><path class="st0" d="M48.5 20.6l1.9-1.8c0.4-0.4 0.7-0.5 1.3-0.5h1.1c0.7 0 1 0.3 1 1v7.5h1.4c0.7 0 1 0.4 1 1v0.8c0 0.7-0.3 1-1 1h-6c-0.7 0-1-0.4-1-1v-0.8c0-0.7 0.3-1 1-1h1.3v-3.5c0-0.5 0-0.9 0-0.9h0c0 0-0.2 0.2-0.3 0.3 -0.4 0.4-0.9 0.4-1.4-0.1l-0.5-0.6C48 21.6 48 21.1 48.5 20.6M37.6 26.6h5.9c0.4 0 0.9 0.1 1.3 0.2 1.1 3 4 5.2 7.4 5.2 4.4 0 7.9-3.5 7.9-7.9 0-4.4-3.5-7.9-7.9-7.9 -2.7 0-5.2 1.4-6.6 3.5 -0.7-0.1-1.4-0.2-2.1-0.2v-4.3c0-0.8-0.6-1.4-1.4-1.4h-2.8c-0.8 0-1.4 0.6-1.4 1.4v4.3h-0.2c-5.6 0-10.2 4.8-9.7 10.6 0.4 4.1 3.5 7.4 7.4 8.6l9.1 2.7c1.1 0.3 1.9 1.4 1.9 2.5 0 1.4-1.2 2.6-2.6 2.6h-5.9c-1.1 0-2.1-0.3-3-0.9 -0.5-0.4-1.3-0.3-1.7 0.2l-3.1 3c-0.6 0.6-0.5 1.6 0.2 2.2 2.2 1.7 4.9 2.7 7.7 2.7v4.3c0 0.8 0.6 1.4 1.4 1.4h2.8c0.8 0 1.4-0.6 1.4-1.4v-4.3c4.1-0.1 8-2.5 9.4-6.4 1.9-5.5-1.3-11.1-6.4-12.6l-9.6-2.8c-1.1-0.3-1.9-1.4-1.9-2.5C35 27.7 36.2 26.6 37.6 26.6"/></svg>