<svg xmlns="http://www.w3.org/2000/svg" viewBox="0 0 88 73"><path class="st0" d="M44.1 28.6h-1c-0.3 0-0.5 0.2-0.5 0.5v1.5h-0.1c-2 0-3.5 1.7-3.4 3.7 0.1 1.4 1.2 2.6 2.6 3l3.2 0.9c0.4 0.1 0.7 0.5 0.7 0.9 0 0.5-0.4 0.9-0.9 0.9h-2c-0.4 0-0.7-0.1-1.1-0.3 -0.2-0.1-0.4-0.1-0.6 0.1l-1.1 1c-0.2 0.2-0.2 0.6 0.1 0.8 0.8 0.6 1.7 0.9 2.7 0.9v1.5c0 0.3 0.2 0.5 0.5 0.5h1c0.3 0 0.5-0.2 0.5-0.5v-1.5c1.4 0 2.8-0.9 3.3-2.2 0.7-1.9-0.4-3.8-2.2-4.4l-3.3-1c-0.4-0.1-0.7-0.5-0.7-0.9 0-0.5 0.4-0.9 0.9-0.9h2c0.4 0 0.7 0.1 1.1 0.3 0.2 0.1 0.4 0.1 0.6-0.1l1.1-1c0.2-0.2 0.2-0.6-0.1-0.8 -0.8-0.6-1.7-0.9-2.7-0.9v-1.5C44.6 28.8 44.4 28.6 44.1 28.6M63.3 42.4h-4.4V27.7c0-8.2-6.6-13.3-14.7-13.3 -2.5 0-4.9 0.6-7 1.7 -1.3 0.7-1.6 2.5-0.5 3.5 0.3 0.3 0.7 0.7 1.1 1.1 0.7 0.7 1.7 0.9 2.5 0.4 1.2-0.6 2.5-0.9 3.9-0.9 4.9 0 8.8 2.4 8.8 7.3v14.8h-4.4c-2.1 0-3 2.4-1.6 3.8l7.4 7.4c0.9 0.9 2.3 0.9 3.2 0l7.4-7.4C66.3 44.9 65.3 42.4 63.3 42.4M50.3 52.3c-0.7-0.7-1.7-0.9-2.5-0.4 -1.2 0.6-2.5 0.9-3.9 0.9 -4.9 0-8.8-2.4-8.8-7.3V30.6h4.5c2 0 3-2.4 1.6-3.8l-7.4-7.4c-0.9-0.9-2.3-0.9-3.2 0l-7.4 7.4c-1.4 1.4-0.5 3.8 1.6 3.8h4.4v14.7c0 8.2 6.6 13.3 14.7 13.3 2.5 0 4.9-0.6 7-1.7 1.3-0.7 1.6-2.5 0.5-3.5C51.1 53.1 50.8 52.7 50.3 52.3"/></svg>