<svg xmlns="http://www.w3.org/2000/svg" viewBox="0 0 88 73"><path class="st0" d="M49.2 24.7c0.5 0.2 0.4 0.6-0.2 0.9l-2.4 1.2c-0.4 0.2-1 0.4-1.5 0.5 -0.3 0.1-0.6 0.2-0.6 0.4l-0.2 1c-0.1 0.2 0.3 0.3 0.8 0.3 1.5-0.2 2.9-0.6 4-1.2l1.4 0.6c0.3 0.1 0.7 0.1 1.1-0.1l1.2-0.6c0.3-0.2 0.4-0.4 0.1-0.5l-1.4-0.6c1.7-0.8 2.4-1.9 1.7-2.7 -1.1-1.1-4.2-1.2-6.8-0.4L41.2 25c-0.6 0.2-1.2 0.2-1.6 0 -0.5-0.2-0.4-0.6 0.2-0.9l2.4-1.2c0.4-0.2 1-0.4 1.5-0.5 0.3-0.1 0.6-0.2 0.6-0.4l0.2-1c0.1-0.2-0.3-0.3-0.8-0.3 -1.5 0.2-2.9 0.6-4 1.2l-1.4-0.6c-0.3-0.1-0.7-0.1-1.1 0.1l-1.2 0.6c-0.3 0.2-0.4 0.4-0.1 0.5l1.4 0.6 -0.1 0c-2.3 1.1-2.5 2.7-0.4 3.3 1.5 0.5 3.9 0.3 5.9-0.4l4.6-1.5C48.1 24.6 48.8 24.6 49.2 24.7M44 43.6l-16.3-7.1 7.7-3.4 1.1 0.5 -0.3 0.2c-0.3 0.2-0.4 0.4-0.1 0.5l1.4 0.6 -0.1 0c-2.3 1.1-2.5 2.7-0.4 3.3 1.5 0.5 3.9 0.3 5.9-0.4l4.6-1.5c0.6-0.2 1.2-0.2 1.6 0 0.5 0.2 0.4 0.6-0.2 0.9l-2.4 1.2c-0.4 0.2-1 0.4-1.5 0.5 -0.3 0.1-0.6 0.2-0.6 0.4l-0.2 1c-0.1 0.2 0.3 0.3 0.8 0.3 1.5-0.2 2.9-0.6 4-1.2l1.4 0.6c0.3 0.1 0.7 0.1 1.1-0.1l1.2-0.6c0.3-0.2 0.4-0.4 0.1-0.5l-1.4-0.6c1.7-0.8 2.4-1.9 1.7-2.7 -0.6-0.6-2-0.9-3.5-0.9l3.2-1.4 7.7 3.4L44 43.6zM39.8 47l0.7-0.3 1.8 0.8c0 0 0 0 0 0l-1.1 0.4c-0.6 0.2-1.2 0.2-1.6 0C39.2 47.7 39.2 47.3 39.8 47M60.3 47.8L44 54.9l-16.3-7.1 7.7-3.4 1 0.4L36.2 45c-0.3 0.2-0.4 0.4-0.1 0.5l1.4 0.6 -0.1 0c-2.3 1.1-2.5 2.7-0.4 3.3 1.5 0.5 3.9 0.3 5.9-0.4l4.6-1.5c0.6-0.2 1.2-0.2 1.6 0 0.5 0.2 0.4 0.6-0.2 0.9l-2.4 1.2c-0.4 0.2-1 0.4-1.5 0.5 -0.3 0.1-0.6 0.2-0.6 0.4l-0.2 1c-0.1 0.2 0.3 0.3 0.8 0.3 1.5-0.2 2.9-0.6 4-1.2l1.4 0.6c0.3 0.1 0.7 0.1 1.1-0.1l1.2-0.6c0.3-0.2 0.4-0.4 0.1-0.5l-1.4-0.6c1.7-0.8 2.4-1.9 1.7-2.7 -0.6-0.6-1.9-0.9-3.3-0.9l2.9-1.3L60.3 47.8zM42.5 36.2l-1.3 0.4c-0.6 0.2-1.2 0.2-1.6 0 -0.5-0.2-0.4-0.6 0.2-0.9l0.8-0.4 1.7 0.7C42.4 36.2 42.5 36.2 42.5 36.2M27.7 25.2L44 18.1l16.3 7.1L44 32.3 27.7 25.2zM44 18.1L44 18.1 44 18.1 44 18.1zM66.7 36.5c0-1.1-0.7-2.2-1.7-2.6l-7.1-3.1 7.1-3.1c1-0.4 1.7-1.5 1.7-2.6S66 23 65 22.6l-19.3-8.4c-1-0.5-2.3-0.5-3.3 0L23 22.6c-1 0.4-1.7 1.5-1.7 2.6s0.7 2.2 1.7 2.6l7.1 3.1L23 33.9c-1 0.4-1.7 1.5-1.7 2.6 0 1.1 0.7 2.2 1.7 2.6l7.1 3.1L23 45.2c-1 0.4-1.7 1.5-1.7 2.6 0 1.1 0.7 2.2 1.7 2.6l19.3 8.4c0.5 0.2 1.1 0.3 1.6 0.3 0.6 0 1.1-0.1 1.6-0.3L65 50.4c1-0.4 1.7-1.5 1.7-2.6 0-1.1-0.7-2.2-1.7-2.6l-7.1-3.1 7.1-3.1C66 38.7 66.7 37.6 66.7 36.5"/></svg>