<svg xmlns="http://www.w3.org/2000/svg" viewBox="0 0 96 80"><path d="M52.2 38.1l-6.4-1.8c-0.5-0.1-0.8-0.6-0.8-1 0-0.6 0.5-1.1 1.1-1.1h4.2c0.5 0 0.9 0.1 1.3 0.3 0.6 0.3 1.3 0.2 1.8-0.3l2.2-2.2c0.7-0.7 0.6-1.8-0.2-2.3 -1.2-0.8-2.6-1.3-4-1.5V26c0-1.1-0.9-2-2-2h-2c-1.1 0-2 0.9-2 2v2.2c-3.9 0.5-6.8 3.9-6.3 8 0.4 2.9 2.6 5.3 5.5 6.1l6.4 1.8c0.5 0.1 0.8 0.6 0.8 1 0 0.6-0.5 1.1-1.1 1.1h-4.2c-0.5 0-0.9-0.1-1.3-0.3 -0.6-0.3-1.3-0.2-1.8 0.3L41 48.4c-0.7 0.7-0.6 1.8 0.2 2.3 1.2 0.8 2.6 1.3 4 1.5v2.3c0 1.1 0.9 2 2 2h2c1.1 0 2-0.9 2-2v-2.2c3.9-0.5 6.8-3.9 6.3-8C57.3 41.3 55 38.9 52.2 38.1"/><path d="M34.8 53.3c-6.8-6.8-7.3-17.2-2.2-24.5l26.7 26.7C52 60.6 41.6 60.1 34.8 53.3M61.8 26.2c6.8 6.8 7.3 17.2 2.2 24.5L37.3 24C44.6 18.9 55 19.4 61.8 26.2M48.3 13.9c-14.3 0-25.8 11.6-25.8 25.8s11.6 25.8 25.8 25.8S74.1 54 74.1 39.7 62.6 13.9 48.3 13.9"/></svg>