<?xml version="1.0" encoding="utf-8"?>
<!-- Generator: Adobe Illustrator 24.0.1, SVG Export Plug-In . SVG Version: 6.00 Build 0)  -->
<svg version="1.1" id="Layer_1" xmlns="http://www.w3.org/2000/svg" xmlns:xlink="http://www.w3.org/1999/xlink" x="0px" y="0px"
	 viewBox="0 0 100 100" style="enable-background:new 0 0 100 100;" xml:space="preserve">
<style type="text/css">
	.st0{fill:#666666;}
</style>
<g>
	<path class="st0" d="M87.2,22.6c-4-6.5-10.4-10.5-17.6-10.9c-10-0.6-16.3,4-19.9,8.7c-0.1-0.1-0.1-0.1-0.2-0.2
		c-0.1,0.1-0.1,0.1-0.2,0.2c-3.6-4.8-10-9.3-19.9-8.7c-7.2,0.4-13.6,4.4-17.6,10.9c-6,9.7-4.6,23,3.4,34c2.2,3,4.8,6.5,7.7,9.7
		c7,7.8,15.4,15,24.5,20.9l1.9,1.3l0.2-0.1l0.2,0.1l1.9-1.3c9.1-6,17.6-13.2,24.5-20.9c2.8-3.2,5.5-6.7,7.7-9.7
		C91.9,45.6,93.2,32.2,87.2,22.6z"/>
</g>
</svg>
