<svg height='100px' width='100px'  fill="#666666" xmlns="http://www.w3.org/2000/svg" xmlns:xlink="http://www.w3.org/1999/xlink" version="1.1" x="0px" y="0px" viewBox="0 0 100 100" enable-background="new 0 0 100 100" xml:space="preserve"><g><path d="M87.233,22.555c-4.011-6.498-10.434-10.457-17.614-10.86c-9.965-0.569-16.334,3.958-19.929,8.71   c-0.056-0.073-0.117-0.149-0.172-0.221c-0.056,0.072-0.12,0.148-0.176,0.221c-3.595-4.751-9.959-9.279-19.929-8.71   c-7.178,0.403-13.603,4.363-17.612,10.86c-5.964,9.662-4.625,22.998,3.417,33.981c2.203,3.007,4.838,6.51,7.67,9.671   c6.961,7.752,15.442,14.995,24.534,20.946l1.92,1.254l0.176-0.114l0.172,0.114l1.924-1.254   c9.088-5.952,17.572-13.194,24.532-20.946c2.833-3.161,5.465-6.664,7.668-9.671C91.859,45.553,93.198,32.217,87.233,22.555z    M78.155,52.392c-2.099,2.869-4.605,6.196-7.234,9.134c-6.06,6.748-13.383,13.047-21.231,18.411   c-0.056-0.043-0.117-0.084-0.172-0.127c-0.056,0.043-0.12,0.084-0.176,0.127c-7.848-5.364-15.17-11.663-21.23-18.411   c-2.63-2.938-5.133-6.266-7.231-9.134c-4.82-6.583-8.528-17.381-3.111-26.152c1.639-2.652,5.386-7.164,12.043-7.542   c10.17-0.578,17.153,9.053,19.706,13.259c2.553-4.206,9.532-13.837,19.705-13.259c6.658,0.378,10.404,4.89,12.041,7.542   C86.681,35.011,82.974,45.809,78.155,52.392z"></path></g></svg>