<?xml version="1.0" encoding="UTF-8"?><svg id="Layer_1" xmlns="http://www.w3.org/2000/svg" viewBox="0 0 256 256"><defs><style>.cls-1{fill:#fff;stroke-width:0px;}</style></defs><path class="cls-1" d="m127,.66h0C57.16.66.55,57.27.55,127.11h0c0,69.84,56.61,126.45,126.45,126.45h0c69.84,0,126.45-56.61,126.45-126.45h0C253.45,57.27,196.84.66,127,.66Zm31,198.12l-42.09-56.28-52.09,56.28h-13.39l59.5-64.28L50.8,55.44h45.57l38.76,51.83,47.97-51.83h13.39l-55.38,59.83,62.45,83.5h-45.57Z"/><polygon class="cls-1" points="71.35 66.06 163.8 189.65 184.73 189.65 92.28 66.06 71.35 66.06"/></svg>